<?xml version="1.0" encoding="UTF-8"?>
<svg width="240px" height="45px" viewBox="0 0 240 45" version="1.1" xmlns="http://www.w3.org/2000/svg" xmlns:xlink="http://www.w3.org/1999/xlink">
    <!-- Generator: Sketch 49 (51002) - http://www.bohemiancoding.com/sketch -->
    <title>Logo</title>
    <desc>Created with Sketch.</desc>
    <defs>
        <polygon id="path-1" points="0.0396694215 0.553897059 239.461157 0.553897059 239.461157 44.8305882 0.0396694215 44.8305882"></polygon>
    </defs>
    <g id="Symbols" stroke="none" stroke-width="1" fill="none" fill-rule="evenodd">
        <g id="Header-Desktop" transform="translate(-2.000000, -30.000000)">
            <g id="Logo" transform="translate(2.000000, 30.000000)">
                <polyline id="Fill-1" fill="#8A8B8A" points="148.240661 44.8193382 147.396364 44.8530882 146.259174 39.6132353 147.092893 39.4332353 147.93719 43.6592647 147.94843 43.6592647 149.671405 39.5569853 150.56 39.5569853 148.240661 44.8193382"></polyline>
                <path d="M153.295868,40.2108088 C152.462149,40.2108088 151.764628,41.0896324 151.764628,42.7572794 C151.764628,43.7605147 152.124298,44.1774265 152.8,44.1774265 C153.644298,44.1774265 154.32,43.2986029 154.32,41.6415441 C154.32,40.6389706 153.970909,40.2108088 153.295868,40.2108088 Z M152.721322,44.96625 C151.404298,44.96625 150.88595,44.0755147 150.88595,42.8135294 C150.88595,40.7177206 151.933223,39.4213235 153.374545,39.4213235 C154.69157,39.4213235 155.209917,40.3120588 155.209917,41.5740441 C155.209917,43.6698529 154.173884,44.96625 152.721322,44.96625 Z" id="Fill-2" fill="#8A8B8A"></path>
                <path d="M158.563967,40.2108088 C157.730248,40.2108088 157.032066,41.0896324 157.032066,42.7572794 C157.032066,43.7605147 157.392397,44.1774265 158.068099,44.1774265 C158.912397,44.1774265 159.588099,43.2986029 159.588099,41.6415441 C159.588099,40.6389706 159.239008,40.2108088 158.563967,40.2108088 Z M157.989421,44.96625 C156.671736,44.96625 156.15405,44.0755147 156.15405,42.8135294 C156.15405,40.7177206 157.201322,39.4213235 158.642645,39.4213235 C159.959669,39.4213235 160.477355,40.3120588 160.477355,41.5740441 C160.477355,43.6698529 159.441983,44.96625 157.989421,44.96625 Z" id="Fill-3" fill="#8A8B8A"></path>
                <path d="M164.282314,40.3233088 C163.798347,40.3233088 163.426777,40.4695588 163.190744,40.6164706 C163.043967,40.6952206 162.93157,40.7964706 162.830413,40.9089706 L162.357025,44.8305882 L161.490909,44.8305882 L161.996694,40.7739706 L161.974215,39.6019853 L162.818512,39.4775735 L162.818512,40.2213971 L162.830413,40.2213971 C162.953388,40.0758088 163.100165,39.9513971 163.257521,39.8276471 C163.528595,39.6357353 163.911405,39.4332353 164.394711,39.4332353 L164.282314,40.3233088" id="Fill-4" fill="#8A8B8A"></path>
                <path d="M168.582479,44.8305882 L167.726942,44.8305882 L168.143471,41.3821324 C168.154711,41.2921324 168.154711,41.1908824 168.154711,41.1002206 C168.154711,40.6045588 167.996694,40.1426471 167.344132,40.1426471 C166.972562,40.1426471 166.679669,40.3233088 166.466116,40.5033088 C166.341818,40.6045588 166.229421,40.7289706 166.139504,40.8639706 L165.654876,44.8305882 L164.78876,44.8305882 L165.576198,38.44125 L165.56562,37.2692647 L166.600992,37.1455147 L166.218182,40.1651471 L166.229421,40.1651471 C166.341818,40.0188971 166.476694,39.8951471 166.623471,39.7819853 C166.882645,39.5907353 167.265455,39.3875735 167.760661,39.3875735 C168.59438,39.3875735 169.066446,39.9626471 169.066446,40.7964706 C169.066446,40.8983824 169.055868,40.9996324 169.043967,41.1002206 L168.582479,44.8305882" id="Fill-5" fill="#8A8B8A"></path>
                <path d="M172.657851,40.1201471 C172.027107,40.1201471 171.441322,40.6502206 171.216529,41.5965441 C172.478017,41.5627941 173.299174,41.3377941 173.299174,40.6727206 C173.299174,40.3001471 173.08562,40.1201471 172.657851,40.1201471 Z M171.126612,42.1941176 L171.104132,42.3741176 C171.092893,42.4760294 171.080992,42.6222794 171.080992,42.7460294 C171.080992,43.6592647 171.418843,44.2111765 172.286281,44.2111765 C172.736529,44.2111765 173.006281,44.0755147 173.356033,43.9292647 L173.659504,44.5711765 C173.209256,44.8305882 172.770248,44.96625 172.083306,44.96625 C170.78876,44.96625 170.248595,44.0867647 170.248595,42.7685294 C170.248595,40.5152206 171.55438,39.4107353 172.826446,39.4107353 C173.670744,39.4107353 174.109752,39.8726471 174.109752,40.5483088 C174.109752,41.7090441 172.927603,42.1941176 171.126612,42.1941176 Z" id="Fill-6" fill="#8A8B8A"></path>
                <path d="M177.160331,40.1201471 C176.529587,40.1201471 175.943802,40.6502206 175.719008,41.5965441 C176.979835,41.5627941 177.801653,41.3377941 177.801653,40.6727206 C177.801653,40.3001471 177.587438,40.1201471 177.160331,40.1201471 Z M175.62843,42.1941176 L175.60595,42.3741176 C175.594711,42.4760294 175.583471,42.6222794 175.583471,42.7460294 C175.583471,43.6592647 175.921322,44.2111765 176.788099,44.2111765 C177.239008,44.2111765 177.50876,44.0755147 177.857851,43.9292647 L178.161983,44.5711765 C177.711736,44.8305882 177.272727,44.96625 176.585785,44.96625 C175.29124,44.96625 174.750413,44.0867647 174.750413,42.7685294 C174.750413,40.5152206 176.05686,39.4107353 177.328926,39.4107353 C178.173223,39.4107353 178.612231,39.8726471 178.612231,40.5483088 C178.612231,41.7090441 177.430083,42.1941176 175.62843,42.1941176 Z" id="Fill-7" fill="#8A8B8A"></path>
                <path d="M183.115372,44.8305882 L182.259835,44.8305882 L182.675702,41.3940441 C182.686942,41.3033824 182.686942,41.2021324 182.686942,41.1121324 C182.686942,40.6045588 182.529587,40.1426471 181.865124,40.1426471 C181.493554,40.1426471 181.212562,40.3233088 180.998347,40.5033088 C180.874711,40.6045588 180.773554,40.7289706 180.671736,40.8639706 L180.187769,44.8305882 L179.320992,44.8305882 L179.827438,40.7739706 L179.816198,39.6019853 L180.649256,39.4775735 L180.649256,40.1770588 L180.661157,40.1770588 C180.784132,40.0301471 180.919669,39.9063971 181.088264,39.7819853 C181.369917,39.5907353 181.775207,39.3875735 182.282314,39.3875735 C183.115372,39.3875735 183.599339,39.9851471 183.599339,40.8077206 C183.599339,40.8983824 183.587438,40.9996324 183.57686,41.1002206 L183.115372,44.8305882" id="Fill-8" fill="#8A8B8A"></path>
                <path d="M189.396364,38.6894118 C189.227769,38.6894118 189.081653,38.7 188.957355,38.7119118 C188.889917,38.7231618 188.821818,38.7231618 188.76562,38.7344118 L188.450909,41.2696324 L188.585785,41.2696324 C189.588099,41.2696324 190.544793,40.7627206 190.544793,39.6357353 C190.544793,38.9594118 190.117025,38.6894118 189.396364,38.6894118 Z M189.858512,41.6984559 L191.276694,44.6730882 L190.421157,45 L189.002975,41.9459559 C188.968595,41.9572059 188.923636,41.9572059 188.867438,41.9572059 C188.821818,41.9684559 188.76562,41.9684559 188.709421,41.9684559 L188.360992,41.9684559 L188.011901,44.8305882 L187.133884,44.8305882 L187.955702,38.1030882 C188.101818,38.0918382 188.259835,38.0693382 188.439669,38.0468382 C188.74314,38.0130882 189.137851,37.9793382 189.57686,37.9793382 C190.747107,37.9793382 191.45719,38.4975 191.45719,39.4438235 C191.45719,40.5258088 190.803967,41.3033824 189.858512,41.6984559 Z" id="Fill-9" fill="#8A8B8A"></path>
                <path d="M194.642645,40.1201471 C194.011901,40.1201471 193.426116,40.6502206 193.201322,41.5965441 C194.46281,41.5627941 195.283967,41.3377941 195.283967,40.6727206 C195.283967,40.3001471 195.070413,40.1201471 194.642645,40.1201471 Z M193.111405,42.1941176 L193.088264,42.3741176 C193.077686,42.4760294 193.065785,42.6222794 193.065785,42.7460294 C193.065785,43.6592647 193.403636,44.2111765 194.271074,44.2111765 C194.721322,44.2111765 194.991074,44.0755147 195.340826,43.9292647 L195.644298,44.5711765 C195.19405,44.8305882 194.755041,44.96625 194.068099,44.96625 C192.773554,44.96625 192.233388,44.0867647 192.233388,42.7685294 C192.233388,40.5152206 193.539174,39.4107353 194.81124,39.4107353 C195.655537,39.4107353 196.094545,39.8726471 196.094545,40.5483088 C196.094545,41.7090441 194.912397,42.1941176 193.111405,42.1941176 Z" id="Fill-10" fill="#8A8B8A"></path>
                <path d="M200.731901,43.6248529 L200.743802,44.7968382 L199.898843,44.92125 L199.898843,44.2224265 L199.887603,44.2224265 C199.763967,44.3686765 199.61719,44.5043382 199.448595,44.6168382 C199.166942,44.8080882 198.762314,45 198.255207,45 C197.422149,45 196.94876,44.4030882 196.94876,43.5911029 C196.94876,43.5011029 196.960661,43.3998529 196.971901,43.2986029 L197.286612,40.7852206 L197.275372,39.6132353 L198.300165,39.4894853 L197.872397,43.0047794 C197.861157,43.1066912 197.849917,43.2198529 197.849917,43.3211029 C197.849917,43.8167647 198.052231,44.2561765 198.671736,44.2561765 C199.032066,44.2561765 199.324959,44.0755147 199.538512,43.8955147 C199.66281,43.7942647 199.775207,43.6698529 199.876364,43.5348529 L200.349091,39.6132353 L201.239008,39.4894853 L200.731901,43.6248529" id="Fill-11" fill="#8A8B8A"></path>
                <path d="M209.06314,44.8305882 L208.207603,44.8305882 L208.624132,41.3940441 C208.635372,41.3033824 208.635372,41.2021324 208.635372,41.1121324 C208.635372,40.6045588 208.477355,40.1426471 207.813554,40.1426471 C207.464463,40.1426471 207.160331,40.3233088 206.946116,40.5033088 C206.822479,40.6045588 206.710083,40.7289706 206.608926,40.8527206 C206.597025,40.8864706 206.597025,40.9202206 206.597025,40.9546324 C206.586446,41.0108824 206.586446,41.1002206 206.575207,41.1908824 L206.124298,44.8305882 L205.26876,44.8305882 L205.685289,41.3940441 C205.696529,41.3033824 205.696529,41.2021324 205.696529,41.1121324 C205.696529,40.6045588 205.539174,40.1426471 204.874711,40.1426471 C204.50314,40.1426471 204.221488,40.3233088 204.007934,40.5033088 C203.884298,40.6045588 203.782479,40.7289706 203.681322,40.8639706 L203.197355,44.8305882 L202.330579,44.8305882 L202.837025,40.7739706 L202.825785,39.6019853 L203.658843,39.4775735 L203.658843,40.1770588 L203.670083,40.1770588 C203.793719,40.0301471 203.940496,39.9063971 204.109091,39.7819853 C204.390744,39.5907353 204.796033,39.3875735 205.302479,39.3875735 C205.888264,39.3875735 206.338512,39.6919853 206.518347,40.2213971 L206.530248,40.2213971 C206.653884,40.0758088 206.8,39.9288971 206.969256,39.8044853 C207.250248,39.5907353 207.678017,39.3875735 208.230083,39.3875735 C209.06314,39.3875735 209.547107,39.9851471 209.547107,40.8077206 C209.547107,40.8983824 209.535868,40.9996324 209.524628,41.1002206 L209.06314,44.8305882" id="Fill-12" fill="#8A8B8A"></path>
                <path d="M214.071405,40.3345588 C214.026446,40.3233088 213.969587,40.3233088 213.91405,40.3120588 C213.812231,40.3001471 213.677355,40.2783088 213.497521,40.2783088 C212.528926,40.2783088 211.60595,41.0671324 211.60595,42.8697794 C211.60595,43.7261029 211.830744,44.2336765 212.495207,44.2336765 C212.844298,44.2336765 213.13719,44.0649265 213.350744,43.8842647 C213.47438,43.7830147 213.586777,43.6592647 213.688595,43.5236029 L214.071405,40.3345588 Z M214.532893,43.6030147 L214.544793,44.78625 L213.699835,44.9093382 L213.699835,44.2111765 L213.688595,44.2111765 C213.586777,44.3574265 213.463802,44.4924265 213.317025,44.6055882 C213.058512,44.7968382 212.664463,44.9880882 212.134876,44.9880882 C211.23438,44.9880882 210.716694,44.2111765 210.716694,42.9941912 C210.716694,40.5377206 212.213554,39.5000735 213.834711,39.5000735 C214.206942,39.5000735 214.488595,39.5232353 214.702149,39.5569853 C214.825785,39.5794853 214.927603,39.6019853 215.01686,39.6132353 L214.532893,43.6030147 Z" id="Fill-13" fill="#8A8B8A"></path>
                <path d="M219.260826,38.0243382 C219.115372,37.9905882 219.002314,37.9455882 218.77686,37.9455882 C218.281653,37.9455882 217.887603,38.1593382 217.797686,38.9150735 L217.718347,39.5569853 L219.103471,39.5569853 L219.013554,40.2895588 L217.629091,40.2895588 L217.065785,44.8305882 L216.221488,44.8305882 L216.784132,40.3001471 L216.040992,40.3001471 L216.119669,39.6919853 L216.86281,39.5344853 L216.930909,39.0044118 C217.099504,37.7318382 217.797686,37.1455147 218.867438,37.1455147 C219.12595,37.1455147 219.328926,37.2017647 219.50876,37.2580147 L219.260826,38.0243382" id="Fill-14" fill="#8A8B8A"></path>
                <path d="M221.602645,40.2108088 C220.769587,40.2108088 220.071405,41.0896324 220.071405,42.7572794 C220.071405,43.7605147 220.431736,44.1774265 221.106777,44.1774265 C221.951736,44.1774265 222.626777,43.2986029 222.626777,41.6415441 C222.626777,40.6389706 222.278347,40.2108088 221.602645,40.2108088 Z M221.028099,44.96625 C219.711074,44.96625 219.193388,44.0755147 219.193388,42.8135294 C219.193388,40.7177206 220.240661,39.4213235 221.681983,39.4213235 C222.999008,39.4213235 223.516694,40.3120588 223.516694,41.5740441 C223.516694,43.6698529 222.481322,44.96625 221.028099,44.96625 Z" id="Fill-15" fill="#8A8B8A"></path>
                <path d="M228.322645,44.8305882 L227.467769,44.8305882 L227.883636,41.3940441 C227.894876,41.3033824 227.894876,41.2021324 227.894876,41.1121324 C227.894876,40.6045588 227.737521,40.1426471 227.073058,40.1426471 C226.701488,40.1426471 226.420496,40.3233088 226.206281,40.5033088 C226.082645,40.6045588 225.980826,40.7289706 225.879669,40.8639706 L225.395702,44.8305882 L224.528926,44.8305882 L225.035372,40.7739706 L225.024132,39.6019853 L225.85719,39.4775735 L225.85719,40.1770588 L225.869091,40.1770588 C225.992066,40.0301471 226.127603,39.9063971 226.296198,39.7819853 C226.577851,39.5907353 226.98314,39.3875735 227.490248,39.3875735 C228.322645,39.3875735 228.807273,39.9851471 228.807273,40.8077206 C228.807273,40.8983824 228.795372,40.9996324 228.784793,41.1002206 L228.322645,44.8305882" id="Fill-16" fill="#8A8B8A"></path>
                <path d="M233.36595,40.3458088 C233.320992,40.3345588 233.276694,40.3345588 233.220496,40.3233088 C233.129917,40.3120588 232.995041,40.3001471 232.814545,40.3001471 C231.800992,40.3001471 230.866777,40.9877206 230.866777,42.8472794 C230.866777,43.7380147 231.13719,44.2336765 231.812893,44.2336765 C232.161322,44.2336765 232.442975,44.0649265 232.65719,43.8842647 C232.780826,43.7830147 232.881983,43.6592647 232.98314,43.5236029 L233.36595,40.3458088 Z M233.828099,43.6030147 L233.839339,44.78625 L233.00562,44.9093382 L233.00562,44.2111765 L232.995041,44.2111765 C232.904463,44.3574265 232.792066,44.4924265 232.64595,44.6055882 C232.386777,44.7968382 232.026446,44.9880882 231.452562,44.9880882 C230.540165,44.9880882 229.98876,44.1880147 229.98876,42.9604412 C229.98876,40.4695588 231.486281,39.5119853 233.061818,39.5119853 C233.163636,39.5119853 233.264793,39.5232353 233.343471,39.5344853 C233.389091,39.5457353 233.43405,39.5457353 233.467769,39.5569853 L233.602645,38.44125 L233.580826,37.2692647 L234.627438,37.1455147 L233.828099,43.6030147 Z" id="Fill-17" fill="#8A8B8A"></path>
                <path d="M238.431736,40.4470588 C238.082645,40.3001471 237.778512,40.1988971 237.407603,40.1988971 C236.900496,40.1988971 236.405289,40.3908088 236.405289,40.9427206 C236.405289,41.2696324 236.585785,41.4390441 236.821818,41.5627941 L237.609256,41.9684559 C238.206942,42.2728676 238.499174,42.6560294 238.499174,43.2423529 C238.499174,44.2224265 237.677355,44.955 236.551405,44.955 C236.044959,44.955 235.57157,44.8530882 235.144463,44.6618382 L235.459174,43.9067647 C235.808264,44.0755147 236.168595,44.1999265 236.562645,44.1999265 C237.227107,44.1999265 237.621157,43.8955147 237.621157,43.3548529 C237.621157,43.0729412 237.49686,42.8922794 237.182149,42.7235294 L236.405289,42.3066176 C235.909421,42.0472059 235.549091,41.6865441 235.549091,41.0558824 C235.549091,40.0076471 236.461488,39.4332353 237.429421,39.4332353 C237.959008,39.4332353 238.341818,39.5119853 238.747107,39.6807353 L238.431736,40.4470588" id="Fill-18" fill="#8A8B8A"></path>
                <polyline id="Fill-19" fill="#D94A60" points="120.996364 32.1650735 117.78843 32.7527206 111.303802 19.7007353 111.269421 19.7007353 109.854545 32.4410294 105.784463 32.4410294 108.336529 11.6563235 111.752066 11.6563235 117.995372 24.2933824 118.030413 24.2933824 119.444628 11.6563235 123.514711 11.6563235 120.996364 32.1650735"></polyline>
                <path d="M133.140496,18.9416912 C131.484298,18.9416912 130.139504,20.3916176 129.76,22.4629412 C132.898512,22.4291912 134.589091,21.7383088 134.589091,20.2533088 C134.589091,19.4591912 134.071405,18.9416912 133.140496,18.9416912 Z M129.552397,25.1219118 C129.518017,25.1907353 129.518017,25.2602206 129.518017,25.3634559 L129.518017,25.8127941 C129.518017,27.9185294 130.415207,29.1275735 132.62281,29.1275735 C133.864463,29.1275735 134.761653,28.7470588 135.692562,28.2983824 L137.141818,31.5092647 C135.45124,32.4410294 134.106446,32.8903676 131.932562,32.8903676 C127.034711,32.8903676 125.378512,29.7483088 125.378512,25.6744853 C125.378512,19.3208824 129.173554,15.6613235 133.864463,15.6613235 C136.762314,15.6613235 138.245289,17.2495588 138.245289,19.7702206 C138.245289,23.0499265 135.658182,25.1219118 129.552397,25.1219118 Z" id="Fill-20" fill="#D94A60"></path>
                <path d="M149.595372,19.7358088 C149.492231,19.7358088 149.38843,19.7358088 149.285289,19.7007353 C149.043306,19.6669853 148.801983,19.6319118 148.49124,19.6319118 C146.111736,19.6319118 144.007273,21.7038971 144.007273,25.7433088 C144.007273,27.9873529 144.628099,29.2308088 146.111736,29.2308088 C146.835702,29.2308088 147.456529,28.9197794 147.905455,28.5399265 C148.146777,28.3327941 148.388099,28.09125 148.595041,27.8497059 L149.595372,19.7358088 Z M152.734545,28.1256618 L152.768926,32.2345588 L148.698182,32.7527206 L148.698182,30.7846324 L148.664463,30.7846324 C148.388099,31.1982353 148.042975,31.5436765 147.629091,31.8547059 C146.939504,32.3722059 145.904793,32.8903676 144.421157,32.8903676 C141.489587,32.8903676 139.764628,30.3352941 139.764628,26.3302941 C139.764628,19.3903676 143.800331,16.0067647 149.216529,16.0067647 C149.423471,16.0067647 149.630413,16.0411765 149.802314,16.0755882 C149.906116,16.1106618 149.974876,16.1106618 150.044298,16.1106618 L150.35438,13.3828676 L150.32,9.34279412 L155.114711,8.82529412 L152.734545,28.1256618 Z" id="Fill-21" fill="#D94A60"></path>
                <path d="M164.222149,18.9416912 C162.566612,18.9416912 161.221157,20.3916176 160.842314,22.4629412 C163.980826,22.4291912 165.671405,21.7383088 165.671405,20.2533088 C165.671405,19.4591912 165.15438,18.9416912 164.222149,18.9416912 Z M160.634711,25.1219118 C160.600331,25.1907353 160.600331,25.2602206 160.600331,25.3634559 L160.600331,25.8127941 C160.600331,27.9185294 161.497521,29.1275735 163.705124,29.1275735 C164.946777,29.1275735 165.843306,28.7470588 166.775537,28.2983824 L168.224132,31.5092647 C166.533554,32.4410294 165.188099,32.8903676 163.015537,32.8903676 C158.116364,32.8903676 156.460826,29.7483088 156.460826,25.6744853 C156.460826,19.3208824 160.255207,15.6613235 164.946777,15.6613235 C167.844628,15.6613235 169.327603,17.2495588 169.327603,19.7702206 C169.327603,23.0499265 166.740496,25.1219118 160.634711,25.1219118 Z" id="Fill-22" fill="#D94A60"></path>
                <path d="M180.919008,19.5630882 C179.367273,19.5630882 178.26314,20.0117647 177.538512,20.4260294 C177.124628,20.6675735 176.779504,20.9435294 176.469421,21.2545588 L175.123967,32.4410294 L170.915702,32.4410294 L172.398678,20.3572059 L172.364298,16.3171324 L176.538182,15.7996324 L176.538182,18.1819853 L176.572562,18.1819853 C176.883306,17.7333088 177.29719,17.2839706 177.779835,16.9047794 C178.573223,16.2489706 179.815537,15.6269118 181.436694,15.6269118 L180.919008,19.5630882" id="Fill-23" fill="#D94A60"></path>
                <polyline id="Fill-24" fill="#D94A60" points="186.025124 32.4410294 181.85124 32.4410294 184.162645 13.3828676 184.127603 9.37786765 188.922975 8.82529412 186.025124 32.4410294"></polyline>
                <path d="M199.996694,19.7358088 C199.892893,19.7358088 199.789091,19.7358088 199.68595,19.7007353 C199.443967,19.6669853 199.272066,19.6319118 198.892562,19.6319118 C196.374215,19.6319118 194.442314,21.6694853 194.442314,25.7777206 C194.442314,27.9873529 195.02876,29.2652206 196.512397,29.2652206 C197.236364,29.2652206 197.857851,28.9197794 198.306116,28.5399265 C198.547438,28.3327941 198.78876,28.09125 199.030083,27.8146324 L199.996694,19.7358088 Z M203.135868,28.1256618 L203.170248,32.2345588 L199.099504,32.7527206 L199.099504,30.7846324 L199.065124,30.7846324 C198.75438,31.1982353 198.409256,31.5436765 197.995372,31.8547059 C197.271405,32.3722059 196.270413,32.8903676 194.787438,32.8903676 C191.924628,32.8903676 190.199669,30.3352941 190.199669,26.3647059 C190.199669,19.1481618 194.684298,15.8684559 200.479339,15.8684559 C201.755372,15.8684559 202.825124,15.9723529 203.514711,16.0755882 C203.928595,16.1444118 204.273719,16.2138971 204.583802,16.2827206 L203.135868,28.1256618 Z" id="Fill-25" fill="#D94A60"></path>
                <path d="M219.970248,32.4410294 L215.796364,32.4410294 L217.072397,21.8766176 C217.107438,21.6694853 217.107438,21.4279412 217.107438,21.2201471 C217.107438,20.115 216.693554,19.2176471 215.209256,19.2176471 C214.382149,19.2176471 213.726281,19.5630882 213.278678,19.9429412 C213.036694,20.1500735 212.794711,20.3916176 212.553388,20.6338235 L211.104793,32.4410294 L206.896529,32.4410294 L208.379504,20.3572059 L208.345785,16.3171324 L212.484628,15.7996324 L212.484628,17.6982353 L212.519008,17.6982353 C212.898512,17.3190441 213.312397,16.9729412 213.760661,16.6632353 C214.55405,16.1444118 215.727603,15.5918382 217.210579,15.5918382 C220.10843,15.5918382 221.453884,17.595 221.453884,20.08125 C221.453884,20.3916176 221.418843,20.7019853 221.384463,21.0480882 L219.970248,32.4410294" id="Fill-26" fill="#D94A60"></path>
                <g id="Group-31">
                    <mask id="mask-2" fill="white">
                        <use xlink:href="#path-1"></use>
                    </mask>
                    <g id="Clip-28"></g>
                    <path d="M233.941818,19.7358088 C233.838017,19.7358088 233.734876,19.7358088 233.631736,19.7007353 C233.390413,19.6669853 233.14843,19.6319118 232.838347,19.6319118 C230.458182,19.6319118 228.353058,21.7038971 228.353058,25.7433088 C228.353058,27.9873529 228.974545,29.2308088 230.458182,29.2308088 C231.182149,29.2308088 231.802975,28.9197794 232.25124,28.5399265 C232.493223,28.3327941 232.734545,28.09125 232.941488,27.8497059 L233.941818,19.7358088 Z M237.080992,28.1256618 L237.115372,32.2345588 L233.044628,32.7527206 L233.044628,30.7846324 L233.010248,30.7846324 C232.734545,31.1982353 232.389421,31.5436765 231.975537,31.8547059 C231.28595,32.3722059 230.250579,32.8903676 228.767603,32.8903676 C225.835372,32.8903676 224.110413,30.3352941 224.110413,26.3302941 C224.110413,19.3903676 228.146777,16.0067647 233.562314,16.0067647 C233.769256,16.0067647 233.976198,16.0411765 234.14876,16.0755882 C234.251901,16.1106618 234.321322,16.1106618 234.390083,16.1106618 L234.700826,13.3828676 L234.666446,9.34279412 L239.461157,8.82529412 L237.080992,28.1256618 Z" id="Fill-27" fill="#D94A60" mask="url(#mask-2)"></path>
                    <path d="M22.0839669,44.8305882 C9.87173554,44.8305882 0,34.9147059 0,22.6919118 C0,20.6609559 0.205619835,18.9390441 0.757024793,16.97625 L4.71272727,18.0443382 C4.26512397,19.6279412 4.0938843,21.0394853 4.0938843,22.6919118 C4.0938843,32.6422059 12.1421488,40.7342647 22.0839669,40.7342647 C23.7692562,40.7342647 25.1801653,40.5602206 26.7616529,40.1135294 L27.8280992,44.0741912 C25.8671074,44.5897059 24.1130579,44.8305882 22.0839669,44.8305882 Z M25.145124,22.6919118 L29.0671074,31.78125 L24.8006612,32.8824265 L21.2932231,24.1385294 C21.2932231,24.1385294 20.7418182,24.2066912 20.1229752,24.2066912 L19.7447934,24.2066912 L18.7471074,32.4013235 L14.4476033,32.4013235 L16.9580165,11.8125 C16.9580165,11.8125 19.4009917,11.4683824 22.1520661,11.4683824 C26.5890909,11.4683824 29.0671074,12.9825 29.0671074,16.39125 C29.0671074,19.2838235 27.3818182,21.3147794 25.145124,22.6919118 Z M21.9120661,14.9108824 C21.3619835,14.9108824 20.88,14.9797059 20.88,14.9797059 L20.1229752,21.1771324 L20.3973554,21.1771324 C22.8066116,21.1771324 24.6300826,19.6967647 24.6300826,17.1833824 C24.6300826,15.4270588 23.4591736,14.9108824 21.9120661,14.9108824 Z" id="Fill-29" fill="#582234" mask="url(#mask-2)"></path>
                    <path d="M22.0839669,0.553897059 C28.2076033,0.553897059 33.4347107,2.7225 37.734876,7.06036765 L34.8449587,9.95294118 C31.3375207,6.44095588 27.0710744,4.65088235 22.0839669,4.65088235 C20.4323967,4.65088235 19.0228099,4.85801471 17.44,5.27029412 L16.374876,1.31095588 C18.3345455,0.794779412 20.0892562,0.553897059 22.0839669,0.553897059" id="Fill-30" fill="#D94A60" mask="url(#mask-2)"></path>
                </g>
                <path d="M35.2561983,25.1027206 C35.2224793,25.48125 35.2224793,25.7909559 35.2224793,25.7909559 C35.1206612,27.8900735 36.1520661,29.0964706 38.3186777,29.0964706 C39.5583471,29.0964706 40.4522314,28.7166176 41.381157,28.2699265 L42.8257851,31.4708824 C41.1391736,32.4013235 39.7996694,32.8493382 37.6317355,32.8493382 C32.745124,32.8493382 31.094876,29.7152206 31.094876,25.6533088 C31.094876,19.2838235 34.8793388,15.6686029 39.5583471,15.6686029 C42.4138843,15.6686029 43.9259504,17.2522059 43.9259504,19.7649265 C43.9259504,23.0022794 41.381157,25.1027206 35.2561983,25.1027206 Z M38.833719,18.9390441 C37.1834711,18.9390441 35.8413223,20.3856618 35.4631405,22.4510294 C38.5593388,22.4166176 40.2809917,21.7283824 40.2809917,20.2480147 C40.2809917,19.4552206 39.7626446,18.9390441 38.833719,18.9390441 Z M59.0618182,32.1935294 L54.8991736,32.7130147 L54.8991736,30.8183824 L54.8641322,30.8183824 C53.04,32.8824265 50.117686,32.8824265 50.117686,32.8824265 C47.0214876,32.8824265 45.7143802,30.3008824 46.058843,27.4777941 L46.9183471,20.3505882 L46.8846281,16.3224265 L51.6647934,15.80625 L50.3233058,26.65125 C50.151405,27.9939706 50.4284298,29.3022794 52.147438,29.3022794 C52.147438,29.3022794 53.5920661,29.3022794 54.8304132,27.8900735 L56.24,16.3224265 L60.5064463,15.80625 L59.0280992,28.1673529 L59.0618182,32.1935294 Z" id="Fill-32" fill="#582234"></path>
                <path d="M80.4575207,32.4013235 L81.7626446,21.8660294 C81.9352066,20.5233088 81.6257851,19.2143382 79.9054545,19.2143382 C79.9054545,19.2143382 78.2889256,19.2143382 77.187438,20.5914706 C77.187438,20.9369118 77.153719,21.3147794 77.153719,21.3147794 L75.7778512,32.4013235 L71.6165289,32.4013235 L72.8872727,21.8660294 C73.061157,20.5233088 72.7166942,19.2143382 71.031405,19.2143382 C71.031405,19.2143382 69.4135537,19.2143382 68.3821488,20.6265441 L66.9375207,32.4013235 L62.7398347,32.4013235 L64.2208264,20.3505882 L64.1857851,16.3224265 L68.3133884,15.80625 L68.3133884,17.6995588 L68.3471074,17.6995588 C70.2393388,15.5991176 73.128595,15.5991176 73.128595,15.5991176 C74.8502479,15.5991176 76.1904132,16.4607353 76.7761983,17.8372059 L76.8092562,17.8372059 C78.7021488,15.5991176 81.797686,15.5991176 81.797686,15.5991176 C85.0307438,15.5991176 86.4072727,18.1125 86.0277686,21.0394853 L84.6181818,32.4013235 L80.4575207,32.4013235 Z M101.644959,28.0978676 L101.681322,32.1935294 L97.6224793,32.7130147 L97.6224793,30.7482353 L97.5861157,30.7482353 C96.2102479,32.8493382 93.322314,32.8493382 93.322314,32.8493382 C90.501157,32.8493382 88.7457851,30.2658088 88.7457851,26.3422059 C88.7457851,19.1468382 93.1828099,15.8744118 98.9970248,15.8744118 C98.9970248,15.8744118 101.57686,15.8744118 103.089587,16.2880147 L101.644959,28.0978676 Z M97.4155372,19.6279412 C94.9044628,19.6279412 92.9771901,21.6939706 92.9771901,25.7565441 C92.9771901,27.9602206 93.5973554,29.2334559 95.0413223,29.2334559 C95.0413223,29.2334559 96.4872727,29.2334559 97.5517355,27.7875 L98.5163636,19.7305147 C98.1024793,19.6279412 97.4155372,19.6279412 97.4155372,19.6279412 Z" id="Fill-33" fill="#582234"></path>
            </g>
        </g>
    </g>
</svg>