<svg id="Layer_1" data-name="Layer 1" xmlns="http://www.w3.org/2000/svg" viewBox="0 0 237.55 105.63"><defs><style>.cls-1{fill:#0085a5;}.cls-2{fill:#d5e4ec;}.cls-3{fill:#cad400;}.cls-4{fill:#ddeaef;}.cls-5{fill:#f9fbfc;}.cls-6{fill:#f2f6e0;}.cls-7{fill:#fff;}</style></defs><title>logo</title><path class="cls-1" d="M80.8,75.5a12.51,12.51,0,0,0,1.23.28,8.75,8.75,0,0,1-1.34-.52h-.37Z"/><path class="cls-1" d="M17.64,74a5.44,5.44,0,0,0,.94,1.25h.11A6.09,6.09,0,0,1,17.64,74Z"/><path class="cls-1" d="M16.3,70.61h0l-6,4.65h7.54A6.5,6.5,0,0,1,16.3,70.61Z"/><path class="cls-1" d="M68.89,69.12h0a22,22,0,0,0-4.73-.53,19.6,19.6,0,0,0-2.7.19l1.11,0a37.29,37.29,0,0,1,5,.33c.42,0,.84,0,1.26.09h0Z"/><path class="cls-1" d="M22.51,69.51a.16.16,0,0,0,0,0,.25.25,0,0,1,0-.06s0,0,0,.05h.07l.06,0h0a1.14,1.14,0,0,1-.12-.24l0-.09,0,0A2,2,0,0,0,22.51,69.51Z"/><path class="cls-1" d="M29.23,64.63a3.18,3.18,0,0,0,1.54-.33C32.51,63.45,35,60.41,37.4,58a.6.6,0,0,1,.31-.2h0c.07,0,.07.06,0,.14C35.33,60.55,33,64,30.59,65a6.06,6.06,0,0,1-1.91.26c-1,0-2.18-.14-3.37-.25-.51,0-1-.07-1.58-.07h-.1l-.08.06.33,0,1.07.16a.81.81,0,0,1,.26,0l.23,0a31.82,31.82,0,0,0,4.08.51,4.2,4.2,0,0,0,2.41-.82C34,63.51,35.76,62,36.64,61.32l.13-.1a32.7,32.7,0,0,1,3.63-3c3.7-3,8.56-3.93,12.25-5.49a.66.66,0,0,1,.34-.12h0c.11,0,.11.07,0,.15l0,.11c-2.76,1.64-5.56,2.69-8.89,4.27l-.45.27A17.45,17.45,0,0,1,45.66,57c-.41.25-.79.49-1.15.73a54,54,0,0,1,8.59-2.93l-.14,0a1.13,1.13,0,0,1,.37-.08c.09,0,.15,0,.17.06s-.11.24-.37.34c-2.51,1.25-5.36,2.12-7.76,3.29a37.87,37.87,0,0,0-6.74,4.84c-2.3,1.64-4.09,4.24-7.93,4.87-.42,0-.83.06-1.24.06a22.83,22.83,0,0,1-3.34-.3,20.55,20.55,0,0,0-2.84-.31,4.88,4.88,0,0,0-1.08.11c-1,.12-2,2.15-1.83,3.57s1.09,1.73,3.31,1.88c.56,0,1.07.18,1.09.42a.26.26,0,0,1-.05.13,36.52,36.52,0,0,0,4.8-1.17c3.48-.83,6.44.39,9,1,.76.07,1.5.14,2.21.19h.16c2,0,3.42-1.12,5.48-2.53A1,1,0,0,1,46.9,71H47c.12,0,.08.16-.1.29-1.77,1.34-3.21,2.49-5.06,2.77a7.62,7.62,0,0,0,2.29-.51c1.79-.76,3.28-1.46,4.78-2a14.09,14.09,0,0,1,2-1.59A12.21,12.21,0,0,1,54,68.77c1.19-.37,2.37-.95,3.68-1.28a20,20,0,0,1,5.4-.69,30.75,30.75,0,0,1,5,.45c.51.07,1,.16,1.51.26h0L94.13,17.94c-2,2.72-3.89,5.23-3.92,5.21s-.43.57-1.12,1.43c-.13.32-.27.64-.42.95-1.32,2.32-2.88,4.39-4.36,6.63-1,1.64-2,3.12-3.1,4.63L81,37a46.61,46.61,0,0,1-4.35,5.06.28.28,0,0,1-.18.09l-.05,0s0-.15.07-.23c1.47-1.55,2.9-3.16,4.21-4.85L80.65,37c-.38.48-.81.91-1.23,1.35a.37.37,0,0,1-.26.14.12.12,0,0,1-.08,0c-.07-.06,0-.22.09-.34.79-.91,1.52-1.87,2.34-2.76,1.41-2.09,2.92-4.18,4.33-6.34.75-1.31,1.86-2.25,2.71-3.48.06-.17.13-.33.2-.5-.81,1-1.87,2.31-2.95,3.62a74.82,74.82,0,0,1-8,11A46,46,0,0,1,71.27,46a1.07,1.07,0,0,1-.64.28.32.32,0,0,1-.26-.11c-.16-.2,0-.59.33-.89A55.49,55.49,0,0,0,76.88,39c.83-1,1.72-1.93,2.48-3a20.73,20.73,0,0,1-2.18,2.06A24.93,24.93,0,0,1,74,41.48c-2.8,2.5-5.68,4.47-8.56,7s-4.53,5-7.38,7.14a.52.52,0,0,1-.3.12l-.09,0c-.09,0-.08-.16,0-.26,2.64-2.31,4.73-4.73,7.33-7.24s5.6-4.76,8.5-7.27l.58-.51L72,41.77a85.66,85.66,0,0,1-7.62,5.63c-2,1.4-3.91,3-6.07,4.21a.9.9,0,0,1-.48.16.34.34,0,0,1-.23-.08c-.13-.14,0-.39.22-.56,3.36-2.8,7.12-5,10.63-7.64l0-.07a.47.47,0,0,1,.28-.39L70,42.3a22.22,22.22,0,0,0,2.13-1.79,16.53,16.53,0,0,1-1.72,1.38.52.52,0,0,1-.3.12.16.16,0,0,1-.15-.07c-.07-.11,0-.31.19-.45a32.12,32.12,0,0,1,4.68-3.69,33.21,33.21,0,0,0,6.55-11.11.2.2,0,0,1,.13-.17h0s.07,0,.06.1A29.92,29.92,0,0,1,74.7,39.17l-.66.66a21.42,21.42,0,0,0,2.21-1.67.78.78,0,0,1,.18-.43l.81-1.05-.08,0c-.09-.08,0-.26.09-.4s.32-.35.47-.53a12.44,12.44,0,0,1,2-3.15c.31-.34.84-1,1.49-1.74a73.57,73.57,0,0,0,5.94-11.57.26.26,0,0,1,.1-.22l.05,0s.07,0,.07.09l.1,0a21.85,21.85,0,0,1-1.73,6l-.26.49,1.88-2.32A29.26,29.26,0,0,1,89,20.26l-.09,0c.05-.14.16-.25.25-.25h0c.1,0,.12.19.07.36s-.17.57-.25.85c.42-.54,1.08-1.42,1.84-2.46,0-.6.08-1.2.08-1.77l.07-.15,0,0s0,0,0,.06c0,.52,0,1.06,0,1.61a95.68,95.68,0,0,0,5.46-7.93,22.82,22.82,0,0,1,3.21-4h0l.72-1.47L100.31,41l.48-.3a17.09,17.09,0,0,1,.25-2.51.06.06,0,0,1,.05-.06V4.59l-.84.52L24.56,64.16a21,21,0,0,1,2.41.23A17.45,17.45,0,0,0,29.23,64.63ZM84.11,33.16a11,11,0,0,1,2-3.2l.11,0s0,.09,0,.15a10.22,10.22,0,0,0-2,3.07c0,.07-.08.11-.12.11S84.09,33.21,84.11,33.16ZM70.73,47.79c2.54-2.6,5.57-4.54,7.87-7.45,1.26-1.54,2.23-3.15,3.57-4.61l.12,0,0,.14c-1.21,1.38-2,2.82-3.11,4.33A12,12,0,0,1,76.32,43c-2,1.55-3.7,3.18-5.49,4.85l-.15,0S70.67,47.85,70.73,47.79Zm-5.18,4.59a22,22,0,0,1,2.54-2.21c2.8-2.26,5.44-4.12,8.06-6.42A29.83,29.83,0,0,0,83.84,34L84,33.9,84,34a32.06,32.06,0,0,1-7.71,9.91c-3.25,3-7.21,5.56-10.55,8.55a.29.29,0,0,1-.18.08h0C65.47,52.51,65.48,52.44,65.54,52.38Zm-1.13,14h.05c1.65.19,3.32.49,4.87.53a.27.27,0,0,1,.21.08s0,.07-.1.07c-1.61,0-3.31-.36-5-.55-.08,0-.15,0-.14-.08S64.34,66.42,64.41,66.42Zm10-29.58a17,17,0,0,0,4.41-6,.2.2,0,0,1,.13-.12h0s.06,0,0,.09A16.29,16.29,0,0,1,74.53,37a.28.28,0,0,1-.17.08.09.09,0,0,1-.07,0C74.25,37,74.28,36.93,74.37,36.84ZM36.75,70.4h-.33a14.51,14.51,0,0,1-1.64-.12A16.71,16.71,0,0,0,33,70.16a11.78,11.78,0,0,0-2.57.3A17.62,17.62,0,0,1,24,71.78c-1.91,0-2.91-.47-2.09-1a2.9,2.9,0,0,1,.54-1.26l0-.41v0a3.94,3.94,0,0,0-.81,1.24c-.31,1-.12,1.38.14,1.45a7.16,7.16,0,0,0,1.88.22,8,8,0,0,0,1.9-.22h.07c.06,0,.11,0,.12,0s-.06.09-.15.1a7.75,7.75,0,0,1-1.94.24c-1.44,0-2.53-.38-2.23-.66-.47-.74.74-2.84,1-2.83l0,0h0v0h0a4.88,4.88,0,0,1,1.22-.13,26.37,26.37,0,0,1,2.75.24,30.21,30.21,0,0,0,3.53.23c.36,0,.74,0,1.12,0h0c.1,0,.17,0,.17,0s-.15.08-.27.09c-.51,0-1,.06-1.47.06a29.31,29.31,0,0,1-3-.18c-.89-.09-1.69-.18-2.41-.18a5.62,5.62,0,0,0-1.24.12,1,1,0,0,0-.36.1,2.64,2.64,0,0,0,.18.35h.62c.42,0,.91.06,1.45.11a37,37,0,0,0,4.09.38c.33,0,.67,0,1,0a9.28,9.28,0,0,0,5.58-2.44.53.53,0,0,1,.24-.13s0,.07,0,.14A9.45,9.45,0,0,1,30,70c-.38,0-.75,0-1.1,0a38,38,0,0,1-4.13-.39c-.53-.06-1-.11-1.42-.11l-.35,0h-.31a2.66,2.66,0,0,0-.5,1.24.36.36,0,0,1-.06.41,7.74,7.74,0,0,0,2.12.29,8.19,8.19,0,0,0,1.25-.09,40.64,40.64,0,0,0,4.65-1.18,11.1,11.1,0,0,1,2.79-.35c1.33,0,2.44.22,3.58.26a.51.51,0,0,1,.36.15S36.85,70.4,36.75,70.4Zm4.06-7.51a21.6,21.6,0,0,0-4.21,3.52.39.39,0,0,1-.23.13c-.06,0,0-.06,0-.13a23.3,23.3,0,0,1,4.38-3.66.25.25,0,0,1,.13,0l0,0S40.89,62.83,40.81,62.89ZM58.6,53.17a.41.41,0,0,1,.23-.1h0c.06,0,.07,0,0,.09a25.09,25.09,0,0,1-4,2.83,20.65,20.65,0,0,1-3.78,1.43c-1.52.55-3,1.14-4.4,1.65a32.66,32.66,0,0,0-9.42,6.13A26.36,26.36,0,0,1,33.6,68a9.3,9.3,0,0,1-4.42,1c-.29,0-.58,0-.86,0l-.46-.09c-1.78-.17-3.28-.47-4.52-.47h-.18c-.82,0-.86,0-1,.17a2.25,2.25,0,0,0-.7.9c0,.07-.1.12-.15.12h0c-.05,0-.08-.12,0-.22.66-1,.59-1.21,1.77-1.22h.28a38.55,38.55,0,0,1,4.2.48l0-.09c-1-.14-1.88-.36-2.72-.49-.25,0-.42-.14-.4-.23s.13-.13.3-.13h.15a46.93,46.93,0,0,0,5,.6c.28,0,.58,0,.87,0C35.64,67,37.77,63.65,41,61.57A16.25,16.25,0,0,1,46.59,59c2.51-1.11,5.36-1.9,8.13-3A46.14,46.14,0,0,0,58.6,53.17ZM25.45,63.47c.92.15,1.73.34,2.54.41a10.09,10.09,0,0,0,1.12.07,2.7,2.7,0,0,0,2.4-1.05.25.25,0,0,1,.17-.09h0c.06,0,.08,0,0,.11A3,3,0,0,1,29,64.17c-.28,0-.58,0-.92,0-.91-.05-1.83-.27-2.89-.43Z"/><path class="cls-1" d="M85.75,75.93h.18a11.47,11.47,0,0,0,3-.67h-.78a6.78,6.78,0,0,1-1.87.57Z"/><path class="cls-1" d="M66.13,67.59a25.2,25.2,0,0,1,3.25.52h0l0-.06h0a23.93,23.93,0,0,0-5.5-.73h-1.7a25.81,25.81,0,0,0-4.4.25C55.51,68.46,53.42,69,51,70c-.58.46-1.16.94-1.71,1.42a16.25,16.25,0,0,1,3.66-.82c3.48-1.57,7.29-3.15,11.46-3.15A15.9,15.9,0,0,1,66.13,67.59Z"/><path class="cls-1" d="M100.77,42.6a4.22,4.22,0,0,1-.46,1.05v-.51h0v1.35c.27-.24.54-.47.8-.71h0V41.93l-.28.44C100.8,42.45,100.79,42.53,100.77,42.6Z"/><path class="cls-1" d="M32.74,74.69l.48,0c1.14.13,2.32.31,3.5.54-2.2-.6-4.72-1.24-6.65-.67-.81.24-1.65.48-2.49.69h1.7A16.1,16.1,0,0,1,32.74,74.69Z"/><path class="cls-1" d="M19,70.27a3.06,3.06,0,0,0,.53,2.53,2.76,2.76,0,0,0,1.65.87,2.53,2.53,0,0,1-1.77-2.23,5,5,0,0,1,1.42-4.12A4.12,4.12,0,0,0,19,70.27Z"/><path class="cls-1" d="M100.85,45.22c.06.09.06.17,0,.19l-.55.2v.17a.34.34,0,0,1,.15.08c.1.08.13.2.07.25l-.22.22h0l-.12,28.94H91.34a1,1,0,0,1-.45.29,11.11,11.11,0,0,1-2.22.66l-.42.12h11.93v6.48H62.87l3-6.48h14.2a7.6,7.6,0,0,1-1.13-.73l-.65-.35H76.9c.43.25.86.51,1.27.77.14.09.2.19.15.24a.11.11,0,0,1-.09,0,.49.49,0,0,1-.23-.07c-.54-.33-1.1-.66-1.67-1H65.85l1.73-3.51-.15.31h-.59a13.33,13.33,0,0,0-2.74.27H64a.17.17,0,0,1-.13,0c-.05,0,0-.1,0-.13a12.28,12.28,0,0,1,3.72-.54h0l.51-1a21.78,21.78,0,0,0-3.53-.3,17.36,17.36,0,0,0-2.07.12c-3,.34-6.57,1.72-9.56,2.79a.38.38,0,0,1-.24.11h0c-.09,0-.1-.08,0-.14l0-.11a28.17,28.17,0,0,1,7-3.27,20.1,20.1,0,0,1,2.76-.53c-1,0-1.92-.09-2.81-.16-2.42.63-4.8,1.55-7.17,2.06l.12,0a.81.81,0,0,1-.29.07h-.09c-2.19,1.28-3.69,2.62-6.66,4H65.05l-4.11,8.59,40.16-.07V44.91l-.3.26Z"/><path class="cls-2" d="M69.71,69.32l-.82-.2,0,.06A7.3,7.3,0,0,1,69.71,69.32Z"/><path class="cls-3" d="M84.58,76.83h.21l.35,0-.51,0Z"/><path class="cls-3" d="M87.85,76.52l.32,0c.17,0,.29,0,.29.12s-.26.33-.61.39a14.74,14.74,0,0,1-3.25.38,9.64,9.64,0,0,1-4.55-1H65.85l-3,6.48h37.31V76.34H88.25a13.31,13.31,0,0,1-2.54.44A16.06,16.06,0,0,0,87.85,76.52Z"/><path class="cls-4" d="M100.3,43.65a4.22,4.22,0,0,0,.46-1.05c0-.07,0-.15.05-.23l-.52.77Z"/><path class="cls-4" d="M100.79,40.7l.31-.19V38.14a.06.06,0,0,0-.05.06A17.09,17.09,0,0,0,100.79,40.7Z"/><circle class="cls-4" cx="101.1" cy="44.9" transform="translate(11.95 110.41) rotate(-60.26)"/><path class="cls-4" d="M100.29,46.33l.22-.22c.06-.05,0-.17-.07-.25a.34.34,0,0,0-.15-.08v.56Z"/><path class="cls-4" d="M101.1,43.78c-.26.24-.53.48-.8.71V45.6l.55-.2c.08,0,.08-.1,0-.19l-.05-.06.3-.26h0Z"/><polygon class="cls-4" points="100.29 46.01 100.3 45.77 100.3 45.77 100.29 46.01"/><polygon class="cls-4" points="100.3 45.6 100.3 45.6 100.3 44.49 100.3 44.49 100.3 45.6"/><polygon class="cls-4" points="101.1 43.78 101.1 44.9 101.1 44.9 101.1 43.78 101.1 43.78"/><polygon class="cls-5" points="100.29 46.33 100.29 46.33 100.29 46.01 100.29 46.33"/><path class="cls-5" d="M93,53.43c0,.07,0,.14,0,.21l0-.2Z"/><path class="cls-4" d="M85.93,75.94h-.18a7.38,7.38,0,0,1-4.68-.66H80.7a8.75,8.75,0,0,0,1.34.52,12.51,12.51,0,0,1-1.23-.28l-.48-.23h-2l.65.35a7.6,7.6,0,0,0,1.13.73h8.19l.42-.12a11.11,11.11,0,0,0,2.22-.66,1,1,0,0,0,.45-.29h-2.4A11.47,11.47,0,0,1,85.93,75.94Z"/><path class="cls-4" d="M67.63,71.63a12.28,12.28,0,0,0-3.72.54c-.08,0-.09.09,0,.13a.17.17,0,0,0,.13,0h.11a13.33,13.33,0,0,1,2.74-.27h.59l.15-.31.06-.13Z"/><path class="cls-4" d="M68.15,70.6l.7-1.42h0c-.42,0-.84-.06-1.26-.09a37.29,37.29,0,0,0-5-.33l-1.11,0a19.6,19.6,0,0,1,2.7-.19,22,22,0,0,1,4.73.53l.5-1h0a25.2,25.2,0,0,0-3.25-.52,15.9,15.9,0,0,0-1.74-.09c-4.16,0-8,1.58-11.46,3.15l.49-.06c-.45.22-.86.45-1.25.68h.09a.81.81,0,0,0,.29-.07l-.12,0c2.37-.51,4.76-1.42,7.17-2.06.89.07,1.84.11,2.81.16a20.1,20.1,0,0,0-2.76.53,28.17,28.17,0,0,0-7,3.27l0,.11c-.07.06-.05.13,0,.14h0a.38.38,0,0,0,.24-.11c3-1.07,6.54-2.45,9.56-2.79a17.36,17.36,0,0,1,2.07-.12,21.78,21.78,0,0,1,3.53.3h0Z"/><polygon class="cls-4" points="67.64 71.63 67.58 71.76 67.64 71.63 67.64 71.63"/><circle class="cls-4" cx="68.15" cy="70.6" transform="translate(-26.87 95.09) rotate(-60.46)"/><polygon class="cls-5" points="68.85 69.18 68.85 69.18 68.48 69.94 68.85 69.18"/><polygon class="cls-5" points="69.39 68.11 69.39 68.11 69.38 68.11 69.39 68.11"/><circle class="cls-5" cx="68.89" cy="69.12" transform="matrix(0.51, -0.86, 0.86, 0.51, -25.82, 92.63)"/><path class="cls-5" d="M67.43,72.07a26.49,26.49,0,0,1,10.84,3.2h2c-4.42-2.15-8.81-3.63-12.68-3.63Z"/><path class="cls-5" d="M89.69,74.48a9.29,9.29,0,0,0,5.07-6.11c-.1.29-.21.57-.34.86A11.4,11.4,0,0,1,89.69,74.48Z"/><polygon class="cls-5" points="69.38 68.11 69.39 68.11 69.38 68.11 68.89 69.12 68.89 69.12 69.38 68.11"/><polygon class="cls-5" points="68.85 69.18 68.85 69.18 68.15 70.6 68.15 70.6 68.48 69.94 68.85 69.18"/><polygon class="cls-5" points="68.89 69.12 69.38 68.11 68.89 69.12 68.89 69.12"/><polygon class="cls-5" points="68.15 70.6 68.15 70.6 68.48 69.94 68.15 70.6"/><path class="cls-6" d="M85.71,76.78l-.56,0Z"/><path class="cls-6" d="M84.61,77.39A14.74,14.74,0,0,0,87.86,77c.35-.07.62-.25.61-.39s-.12-.12-.29-.12l-.32,0a16.06,16.06,0,0,1-2.14.26l-.56,0-.35,0h-.16l.51,0,.56,0a13.31,13.31,0,0,0,2.54-.44H80.06A9.64,9.64,0,0,0,84.61,77.39Z"/><path class="cls-4" d="M64.41,66.55c1.72.19,3.43.5,5,.55.08,0,.13,0,.1-.07a.27.27,0,0,0-.21-.08c-1.55,0-3.22-.34-4.87-.53h-.05c-.08,0-.13,0-.14.05S64.32,66.54,64.41,66.55Z"/><path class="cls-4" d="M78,76.24a.49.49,0,0,0,.23.07.11.11,0,0,0,.09,0c0-.05,0-.16-.15-.24-.41-.27-.84-.53-1.27-.77h-.56C76.92,75.58,77.48,75.91,78,76.24Z"/><path class="cls-5" d="M69.45,72.86c-.08,0-.1,0-.06.09a.27.27,0,0,0,.19.08,15.2,15.2,0,0,1,6.77,2.24h.56a16,16,0,0,0-7.42-2.41Z"/><path class="cls-4" d="M57.81,67.58a25.81,25.81,0,0,1,4.4-.25h1.7a23.93,23.93,0,0,1,5.5.73l.27-.54c-.5-.1-1-.19-1.51-.26a30.75,30.75,0,0,0-5-.45,20,20,0,0,0-5.4.69c-1.32.34-2.49.91-3.68,1.28A12.21,12.21,0,0,0,50.85,70a14.09,14.09,0,0,0-2,1.59l.41-.14C49.83,71,50.4,70.5,51,70,53.42,69,55.51,68.46,57.81,67.58Z"/><circle class="cls-5" cx="69.41" cy="68.05" transform="translate(-26.67 82.75) rotate(-53.13)"/><polygon class="cls-5" points="69.68 67.51 69.68 67.51 69.52 67.84 69.68 67.51"/><polygon class="cls-5" points="69.41 68.05 69.52 67.84 69.68 67.51 69.41 68.05 69.41 68.05"/><polygon class="cls-5" points="69.52 67.84 69.41 68.05 69.41 68.05 69.52 67.84"/><path class="cls-7" d="M17.87,75.27a5.16,5.16,0,0,0,1.51,1.17,2.57,2.57,0,0,0,.95.26c.09,0,.16,0,.18,0s-.27-.35-.74-.55a4.42,4.42,0,0,1-1.19-.82h-.71Z"/><polygon class="cls-7" points="24.36 64.32 23.62 64.9 23.62 64.9 24.36 64.32"/><polygon class="cls-7" points="16.85 70.18 16.85 70.18 16.3 70.61 16.3 70.61 16.85 70.18"/><polygon class="cls-4" points="24.57 64.16 24.57 64.16 24.36 64.32 24.57 64.16"/><path class="cls-4" d="M17.86,74.13a5.25,5.25,0,0,1-1-3.95l-.55.43h0a6.5,6.5,0,0,0,1.57,4.65h.71A5.44,5.44,0,0,1,17.64,74a5.38,5.38,0,0,1-.29-.51c.08.18.19.34.29.51a6.09,6.09,0,0,0,1,1.25h.66A4.15,4.15,0,0,1,17.86,74.13Z"/><path class="cls-4" d="M29.52,65.67a31.82,31.82,0,0,1-4.08-.51l-.23,0a.81.81,0,0,0-.26,0A22.43,22.43,0,0,0,29.52,65.67Z"/><path class="cls-4" d="M17.64,74c-.1-.17-.21-.33-.29-.51A5.38,5.38,0,0,0,17.64,74Z"/><path class="cls-4" d="M23.62,64.9h.1c.54,0,1.07,0,1.58.07,1.19.11,2.35.25,3.37.25A6.06,6.06,0,0,0,30.59,65c2.37-.94,4.74-4.41,7.16-7,.07-.08.07-.14,0-.14h0a.6.6,0,0,0-.31.2c-2.36,2.37-4.89,5.41-6.63,6.25a3.18,3.18,0,0,1-1.54.33A17.45,17.45,0,0,1,27,64.39a21,21,0,0,0-2.41-.23l-.2.16Z"/><path class="cls-4" d="M47,71.05H46.9a1,1,0,0,0-.48.19c-2.06,1.4-3.45,2.53-5.48,2.53h-.16c-.71,0-1.45-.11-2.21-.19l.29.07a7.14,7.14,0,0,0,2.93.48c1.85-.28,3.3-1.43,5.06-2.77C47,71.22,47.08,71.08,47,71.05Z"/><path class="cls-4" d="M33,66.68c-2.76,2-6.71.76-9.36.43a3.87,3.87,0,0,0-2.85.21,5,5,0,0,0-1.42,4.12,2.53,2.53,0,0,0,1.77,2.23,6,6,0,0,0,.82.12,9.47,9.47,0,0,0,2.78-.08.26.26,0,0,0,.05-.13c0-.24-.53-.4-1.09-.42-2.22-.15-3.18-.46-3.31-1.88s.85-3.45,1.83-3.57a4.88,4.88,0,0,1,1.08-.11,20.55,20.55,0,0,1,2.84.31,22.83,22.83,0,0,0,3.34.3c.4,0,.82,0,1.24-.06,3.85-.63,5.63-3.23,7.93-4.87a37.87,37.87,0,0,1,6.74-4.84c2.4-1.17,5.25-2,7.76-3.29.25-.1.43-.26.37-.34s-.08-.06-.17-.06a1.13,1.13,0,0,0-.37.08l.14,0a54,54,0,0,0-8.59,2.93c-2.28,1.53-3.79,3-6.56,5.2A56.72,56.72,0,0,1,33,66.68Z"/><path class="cls-4" d="M44.18,57.18c3.33-1.59,6.13-2.63,8.89-4.27l0-.11c.09-.08.09-.14,0-.15h0a.66.66,0,0,0-.34.12C49,54.34,44.1,55.23,40.4,58.27a32.7,32.7,0,0,0-3.63,3,19.29,19.29,0,0,1,7-3.77Z"/><path class="cls-4" d="M32.74,74.69a16.1,16.1,0,0,0-3.47.58h7.5l-.06,0c-1.18-.23-2.35-.42-3.5-.54Z"/><polygon class="cls-4" points="16.3 70.61 16.3 70.61 16.85 70.18 16.85 70.18 16.3 70.61"/><path class="cls-4" d="M40.77,62.75a23.3,23.3,0,0,0-4.38,3.66c-.07.07-.09.13,0,.13a.39.39,0,0,0,.23-.13,21.6,21.6,0,0,1,4.21-3.52c.08-.06.14-.13.12-.17l0,0A.25.25,0,0,0,40.77,62.75Z"/><path class="cls-4" d="M32.94,69.91a11.1,11.1,0,0,0-2.79.35,40.64,40.64,0,0,1-4.65,1.18,8.19,8.19,0,0,1-1.25.09,7.74,7.74,0,0,1-2.12-.29.36.36,0,0,0,.06-.41,2.66,2.66,0,0,1,.5-1.24H23l.35,0c.41,0,.89.05,1.42.11a38,38,0,0,0,4.13.39c.35,0,.72,0,1.1,0a9.45,9.45,0,0,0,5.65-2.58c.06-.06.08-.12,0-.14a.53.53,0,0,0-.24.13,9.28,9.28,0,0,1-5.58,2.44c-.35,0-.69,0-1,0a37,37,0,0,1-4.09-.38c-.53-.05-1-.11-1.45-.11h-.62a2.64,2.64,0,0,1-.18-.35h0l0,.09a1.14,1.14,0,0,0,.12.24h0l-.06,0h-.07s0-.05,0-.05a.25.25,0,0,0,0,.06.16.16,0,0,1,0,0,2,2,0,0,1-.05-.38h0v0l0,.41A2.9,2.9,0,0,0,22,70.83c-.82.49.18,1,2.09,1a17.62,17.62,0,0,0,6.38-1.32,11.78,11.78,0,0,1,2.57-.3,16.71,16.71,0,0,1,1.79.12,14.51,14.51,0,0,0,1.64.12h.33c.1,0,.16,0,.12-.08a.51.51,0,0,0-.36-.15C35.38,70.14,34.27,69.91,32.94,69.91Z"/><path class="cls-4" d="M22.41,68.7v0h0Z"/><path class="cls-4" d="M22.5,69.1h0a1,1,0,0,1,.36-.1,5.62,5.62,0,0,1,1.24-.12c.72,0,1.51.09,2.41.18a29.31,29.31,0,0,0,3,.18c.47,0,1,0,1.47-.06.12,0,.24,0,.27-.09s-.07,0-.17,0h0c-.39,0-.76,0-1.12,0a30.21,30.21,0,0,1-3.53-.23,26.37,26.37,0,0,0-2.75-.24,4.88,4.88,0,0,0-1.22.13h0l0,0c-.23,0-1.44,2.1-1,2.83-.29.28.79.66,2.23.66A7.75,7.75,0,0,0,25.59,72c.09,0,.15-.07.15-.1s-.06,0-.12,0h-.07a8,8,0,0,1-1.9.22,7.16,7.16,0,0,1-1.88-.22c-.25-.07-.44-.43-.14-1.45a3.94,3.94,0,0,1,.81-1.24h0Z"/><path class="cls-4" d="M29,64.17a3,3,0,0,0,2.75-1.24c0-.06,0-.1,0-.11h0a.25.25,0,0,0-.17.09A2.7,2.7,0,0,1,29.11,64,10.09,10.09,0,0,1,28,63.88c-.81-.07-1.62-.26-2.54-.41l-.29.22c1.06.15,2,.37,2.89.43C28.4,64.15,28.7,64.17,29,64.17Z"/><path class="cls-4" d="M41,61.57c-3.27,2.08-5.4,5.41-10.32,6.75-.3,0-.59,0-.87,0a46.93,46.93,0,0,1-5-.6H24.7c-.17,0-.29.06-.3.13s.16.18.4.23c.85.12,1.73.34,2.72.49l0,.09a38.55,38.55,0,0,0-4.2-.48H23c-1.18,0-1.12.23-1.77,1.22-.06.09,0,.19,0,.22h0c.05,0,.11-.06.15-.12a2.25,2.25,0,0,1,.7-.9c.15-.12.19-.12,1-.17h.18c1.24,0,2.74.3,4.52.47l.46.09c.28,0,.56,0,.86,0a9.3,9.3,0,0,0,4.42-1,26.36,26.36,0,0,0,3.68-2.79,32.66,32.66,0,0,1,9.42-6.13c1.39-.51,2.88-1.1,4.4-1.65A20.65,20.65,0,0,0,54.88,56a25.09,25.09,0,0,0,4-2.83c.07,0,.06-.09,0-.09h0a.41.41,0,0,0-.23.1A46.14,46.14,0,0,1,54.72,56c-2.77,1.13-5.62,1.92-8.13,3A16.25,16.25,0,0,0,41,61.57Z"/><path class="cls-4" d="M89,21.27c.09-.28.17-.57.25-.85s0-.33-.07-.36h0c-.09,0-.2.11-.25.25l.09,0a29.26,29.26,0,0,0-1.62,3.06c.71-.88,1.16-1.46,1.15-1.46A6.46,6.46,0,0,0,89,21.27Z"/><path class="cls-4" d="M77.16,37.11c.2-.51.38-1,.58-1.4-.15.18-.31.36-.47.53s-.18.32-.09.4l.08,0-.81,1.05a.78.78,0,0,0-.18.43A21.42,21.42,0,0,1,74,39.83l.66-.66a29.92,29.92,0,0,0,6.91-12.55c0-.06,0-.1-.06-.1h0a.2.2,0,0,0-.13.17A33.21,33.21,0,0,1,74.83,37.8a32.12,32.12,0,0,0-4.68,3.69c-.18.14-.26.34-.19.45a.16.16,0,0,0,.15.07.52.52,0,0,0,.3-.12,16.53,16.53,0,0,0,1.72-1.38A22.22,22.22,0,0,1,70,42.3L68.64,43a.47.47,0,0,0-.28.39l0,.07c-3.51,2.69-7.27,4.84-10.63,7.64-.25.17-.36.43-.22.56a.34.34,0,0,0,.23.08.9.9,0,0,0,.48-.16c2.17-1.23,4-2.81,6.07-4.21A85.66,85.66,0,0,0,72,41.77l2.16-1.34-.58.51c-2.9,2.51-5.77,4.62-8.5,7.27s-4.69,4.93-7.33,7.24c-.12.1-.13.22,0,.26l.09,0a.52.52,0,0,0,.3-.12c2.85-2.19,4.55-4.72,7.38-7.14s5.76-4.5,8.56-7a24.93,24.93,0,0,0,3.2-3.34,20.73,20.73,0,0,0,2.18-2.06c-.76,1-1.65,2-2.48,3a55.49,55.49,0,0,1-6.19,6.21c-.34.3-.49.69-.33.89a.32.32,0,0,0,.26.11,1.07,1.07,0,0,0,.64-.28,46,46,0,0,0,6.49-6.29,74.82,74.82,0,0,0,8-11c-1.85,2.26-3.74,4.52-4.45,5.29A12.42,12.42,0,0,1,77.16,37.11Z"/><path class="cls-4" d="M85.78,25.15a21.85,21.85,0,0,0,1.73-6l-.1,0c0-.06,0-.09-.07-.09l-.05,0a.26.26,0,0,0-.1.22,73.57,73.57,0,0,1-5.94,11.57c1.22-1.45,2.86-3.44,4.28-5.18Z"/><path class="cls-4" d="M84.27,33.14a10.22,10.22,0,0,1,2-3.07c0-.06.05-.12,0-.15l-.11,0a11,11,0,0,0-2,3.2c0,.05,0,.1,0,.1S84.24,33.21,84.27,33.14Z"/><path class="cls-4" d="M65.57,52.55a.29.29,0,0,0,.18-.08c3.33-3,7.3-5.51,10.55-8.55A32.06,32.06,0,0,0,84,34l0-.11-.12.11a29.83,29.83,0,0,1-7.7,9.73c-2.62,2.31-5.25,4.16-8.06,6.42a22,22,0,0,0-2.54,2.21c-.07.06-.08.13,0,.16Z"/><path class="cls-4" d="M70.83,47.9c1.79-1.67,3.54-3.3,5.49-4.85a12,12,0,0,0,2.82-2.88c1.1-1.51,1.9-2.95,3.11-4.33l0-.14-.12,0c-1.34,1.46-2.31,3.07-3.57,4.61-2.3,2.92-5.33,4.85-7.87,7.45-.05.06-.06.11,0,.14Z"/><path class="cls-4" d="M74.36,37.12a.28.28,0,0,0,.17-.08A16.29,16.29,0,0,0,79,30.83c0-.06,0-.09,0-.09h0a.2.2,0,0,0-.13.12,17,17,0,0,1-4.41,6c-.08.09-.11.19-.08.25A.09.09,0,0,0,74.36,37.12Z"/><path class="cls-4" d="M88.54,25.52c-.85,1.23-2,2.17-2.71,3.48-1.41,2.17-2.92,4.25-4.33,6.34-.82.89-1.55,1.85-2.34,2.76-.12.12-.16.28-.09.34a.12.12,0,0,0,.08,0,.37.37,0,0,0,.26-.14c.42-.44.85-.87,1.23-1.35l.06.07c-1.32,1.68-2.75,3.29-4.21,4.85-.09.08-.11.18-.07.23l.05,0a.28.28,0,0,0,.18-.09A46.61,46.61,0,0,0,81,37l.2-.2c1.1-1.52,2.14-3,3.1-4.63,1.48-2.24,3-4.32,4.36-6.63.16-.31.29-.63.42-.95l-.35.44C88.68,25.19,88.6,25.35,88.54,25.52Z"/><path class="cls-4" d="M91.09,16.94s0-.06,0-.06l0,0-.07.15c0,.57,0,1.17-.08,1.77l.19-.26C91.1,18,91.1,17.46,91.09,16.94Z"/><path class="cls-7" d="M100.82,42.37l.28-.44V40.86A10.64,10.64,0,0,1,100.82,42.37Z"/><path class="cls-7" d="M93.06,53c0,.14,0,.27,0,.41a3.19,3.19,0,0,0,0-.33S93.06,53.05,93.06,53Z"/><path class="cls-7" d="M88.17,75.27a13,13,0,0,0,1.52-.79,11,11,0,0,1-2.09.79Z"/><path class="cls-7" d="M101.1,40.86c0-.12,0-.25,0-.37l0,0Z"/><path class="cls-7" d="M100.31,42.55v.59l.52-.77a10.64,10.64,0,0,0,.28-1.51v-.35l-.31.19a4.91,4.91,0,0,1-.38,1.64Z"/><path class="cls-7" d="M93.07,54.08A5.06,5.06,0,0,0,94,55.27h.09l0-.06c-.36-.36-.61-.77-.93-1.16a14.28,14.28,0,0,0,0-1.85q-.07.41-.1.82s0,.05,0,.08a3.19,3.19,0,0,1,0,.33h0l0,.2A.82.82,0,0,0,93.07,54.08Z"/><path class="cls-7" d="M36.27,63.54a22.22,22.22,0,0,1-1.91,1.79c2.72-2.07,5.17-4.42,8-6.31A36,36,0,0,0,36.27,63.54Z"/><path class="cls-7" d="M30.36,65.63h.1c2.18-.56,4.18-2.46,6.32-4.39l-.13.1c-.89.65-2.61,2.19-4.71,3.52a4.2,4.2,0,0,1-2.41.82h.09A6.83,6.83,0,0,0,30.36,65.63Z"/><path class="cls-7" d="M52.94,70.64l-.55.25c-.2.09-.34.24-.28.32a.11.11,0,0,0,.07.05c.39-.23.8-.45,1.25-.68Z"/><path class="cls-7" d="M47.82,72.64c-.05.05,0,.09,0,.09l.18-.09c.39-.4.81-.79,1.25-1.18l-.41.14C48.5,71.95,48.15,72.29,47.82,72.64Z"/><path class="cls-7" d="M19.35,75.27a5.32,5.32,0,0,0,2.36.61,8.26,8.26,0,0,0,1.06.08,7.45,7.45,0,0,1-2.23-.69Z"/><circle class="cls-7" cx="19.8" cy="67.88" transform="translate(-41.81 33.17) rotate(-44.34)"/><polygon class="cls-7" points="16.85 70.18 16.85 70.18 18.66 68.77 16.85 70.18"/><path class="cls-7" d="M36.8,75.27l-.09,0,.06,0Z"/><path class="cls-7" d="M21.95,73.78a6,6,0,0,1-.82-.12,7,7,0,0,0,2.51.4h.08a1.21,1.21,0,0,0,1-.36A9.47,9.47,0,0,1,21.95,73.78Z"/><polygon class="cls-7" points="18.66 68.77 19.8 67.88 19.8 67.88 18.66 68.77"/><polygon class="cls-7" points="19.8 67.88 18.66 68.77 16.85 70.18 16.85 70.18 19.8 67.88 19.8 67.88"/><path class="cls-7" d="M79.43,33.61c.62-.92,1.22-1.85,1.81-2.79-.65.78-1.19,1.4-1.49,1.74a12.44,12.44,0,0,0-2,3.15c.56-.66,1.07-1.37,1.64-2Z"/><path class="cls-7" d="M86.33,25.55c.37-.74.72-1.49,1.07-2.23l-1.88,2.32-.81,1.53A11.38,11.38,0,0,1,86.33,25.55Z"/><path class="cls-7" d="M90.89,20.17a15.94,15.94,0,0,0,.17-1.62l-.19.26c0,.47-.07.94-.08,1.41-.58,1.67-1.43,3.18-2.05,4.8l.35-.44c.27-.66.51-1.33.82-2A8.2,8.2,0,0,0,90.89,20.17Z"/><path class="cls-2" d="M67.43,72.07l.21-.44-.06.13-1.73,3.51h10.5A15.2,15.2,0,0,0,69.58,73a.27.27,0,0,1-.19-.08s0-.09.06-.09h0a16,16,0,0,1,7.42,2.41h1.37A26.49,26.49,0,0,0,67.43,72.07Z"/><path class="cls-2" d="M98.77,47.4a4.71,4.71,0,0,0,.09,4.19l0,.06-.13,0a4.6,4.6,0,0,1-.39-5l.18-.27a4.23,4.23,0,0,0-.89.54.25.25,0,0,1,0,.21l-.13.45.08,0c.09.06.15.15.11.21l-.52,1,0,0a33.59,33.59,0,0,0-.32,5.5l0,.08-.14,0h-.11A4.22,4.22,0,0,1,95.77,52l0-.81a2.32,2.32,0,0,1-.31.35,12.08,12.08,0,0,0-.35,2.11,35.17,35.17,0,0,0,0,7.44c-.24-.16,1,3.28-.35,7.22a9.29,9.29,0,0,1-5.07,6.11,13,13,0,0,1-1.52.79h.78a11.35,11.35,0,0,0,7-7.2c1.14-3.7-.43-6.8-.41-9.77,0-.39.06-.76.24-.83h.06c.16,0,.31.24.35.58.32,2.61,1.44,5,.95,8.74A11.91,11.91,0,0,1,91.42,75l0,.08a.44.44,0,0,1-.1.18h8.83l.12-28.94A2.77,2.77,0,0,1,98.77,47.4Zm.29,2.77,0,0-.1,0c-.6-1-.06-1.66.39-2.24h0a.2.2,0,0,1,.11,0c.05,0,.08.09.06.12C99.15,48.67,98.49,49.22,99.06,50.18Z"/><path class="cls-2" d="M79.52,73.25c-1.44-.77-2.91-1.46-4.39-2.1a29.31,29.31,0,0,1,3.25,1.92,13.76,13.76,0,0,0,3,1.33c.51,0,1-.06,1.5-.12A9,9,0,0,1,79.52,73.25Z"/><path class="cls-2" d="M75.47,69.28c1.34.49,2.61,1.11,3.88,1.73l1.86,1,.13.07.12,0,.14,0s0,0,0,0l.79.22c.11,0,.2.08.18.15a.14.14,0,0,1-.15.08h-.08a9.73,9.73,0,0,1-1.2-.33l-1.79-1c-1.21-.62-2.44-1.21-3.7-1.73l-.07.08c.73.3,1.38.7,2.08,1,.19.1.32.25.28.34a.15.15,0,0,1-.13.05.7.7,0,0,1-.3-.08c-1.38-.63-2.77-1.29-4.19-1.91-1.28-.36-2.59-.74-3.92-1.06l0,.06a45.37,45.37,0,0,1,10.52,4.13,8.78,8.78,0,0,0,4.3,1.07,10.09,10.09,0,0,0,4.63-1.12,1.78,1.78,0,0,1,.67-.19h.06a8.87,8.87,0,0,0,2.92-3.65c1.59-3.28.34-6.95.53-7,0,0-.06-.61-.13-1.61a14.09,14.09,0,0,1-.81-4.07.65.65,0,0,1,.1-.5l.06,0c.07,0,.13.09.15.24.11.74.26,1.45.42,2.15a30.54,30.54,0,0,1,.2-3.9c0-.07,0-.14,0-.21s0-.27,0-.41a4.68,4.68,0,0,1,0-1.11c.19-1,.6-1.89.86-2.91a10.39,10.39,0,0,1,.49-2.19l.08-.09a9.88,9.88,0,0,1,1.23-2.37h.14l0,.12a15.3,15.3,0,0,0-1.19,2.25l.08.05.41-.62a.11.11,0,0,1,.1,0,.2.2,0,0,1,.11,0,.21.21,0,0,1,.07.08c.16-.26.31-.5.46-.73A11,11,0,0,1,97.74,43a.24.24,0,0,1,.19-.08H98A12.06,12.06,0,0,1,100.31,41l.14-35.89-.72,1.47a9.21,9.21,0,0,1-1.41,5.12,65.19,65.19,0,0,1-4.2,6.24L69.68,67.51a32.45,32.45,0,0,1,5.48,1.61ZM95,45A7.44,7.44,0,0,1,94,47.3H94l0-.07a5.84,5.84,0,0,0,.7-2.17,2,2,0,0,1,.88-1.25,6.61,6.61,0,0,0,1.69-2h.09l0,.09C96.71,43.17,95.54,43.68,95,45Zm.18-1.77c1-1.18,2.62-2.18,3.19-3.85l.1,0,.06.11A2.57,2.57,0,0,1,98,40.7a19,19,0,0,1-2.64,2.72c-1,.87-2.21,3-1.84,4.69l-.06,0-.08-.06C93,46.36,94.3,44.22,95.15,43.28ZM93.5,48.52l.05,0,.08.05A1.79,1.79,0,0,1,93.3,50h-.08l0-.07A1.69,1.69,0,0,0,93.5,48.52ZM70.4,67s0-.06.07-.06h0a24.57,24.57,0,0,1,7.74,2.24c1.25.53,2.41,1.2,3.6,1.86l.79.2a6.66,6.66,0,0,0,1.26.21h0a5.69,5.69,0,0,0,1,.08c3.35,0,7-2.8,6.53-6.23a.17.17,0,0,1,.07-.18h0s.08,0,.09.1A4.25,4.25,0,0,1,91.22,68a6.84,6.84,0,0,1-6.35,3.81,7.32,7.32,0,0,1-1-.06,11.48,11.48,0,0,1-2.16-.5h0a36.08,36.08,0,0,0-3.55-1.85,24.69,24.69,0,0,0-7.61-2.23A.32.32,0,0,1,70.4,67Zm3,1.2a.1.1,0,0,1,.07,0,.26.26,0,0,1,.12,0c2.17.95,4.15,1.54,6.34,2.46.39.14,1.41.67,1.7.82.58.17,1.14.38,1.73.51a5.83,5.83,0,0,0,1.51.2,6.93,6.93,0,0,0,4.58-1.85l.14,0,0,.13a6.81,6.81,0,0,1-4.9,1.86,9,9,0,0,1-4.31-1.09c-2.25-1.11-4.52-1.82-6.85-2.9C73.41,68.31,73.37,68.26,73.38,68.23Z"/><path class="cls-2" d="M100.3,43.14v.51a11.29,11.29,0,0,1-1.92,2.09l-.06.07-.08.11.91-.37c.37-.38.77-.72,1.16-1.06h0V43.14Z"/><path class="cls-2" d="M80.32,75.27h.37A9.21,9.21,0,0,1,78.76,74h-.06a1.18,1.18,0,0,1-.49-.14l-1.52-.67v.09a.18.18,0,0,1-.17.07.77.77,0,0,1-.33-.09c-1.23-.63-2.51-1.15-3.78-1.67l-.09,0a30.9,30.9,0,0,0-4.17-1h0l-.51,1h0C71.51,71.64,75.9,73.12,80.32,75.27Z"/><path class="cls-1" d="M138.63,83.76H128.55V48.55q0-2.66-2.91-2.66t-2.92,2.66V83.76H112.64V48.7q0-4.25,4.61-6.48a19.61,19.61,0,0,1,8.43-1.73A19.41,19.41,0,0,1,134,42.22q4.61,2.23,4.61,6.48Z"/><polygon class="cls-1" points="172.18 41.71 163.98 83.76 149.58 83.76 141.73 41.71 151.81 41.71 157.06 75.99 162.47 41.71 172.18 41.71"/><polygon class="cls-3" points="198.62 50.12 192.06 83.76 180.54 83.76 174.26 50.12 182.32 50.12 186.53 77.55 190.84 50.12 198.62 50.12"/><path class="cls-1" d="M217.69,50.93q0-5.26-3.24-5.26-2.95,0-2.95,2.52v16h.28q5.9,0,5.91-3.74Zm9.5,8.93A7.66,7.66,0,0,1,226,63.68q-3.45,5.69-12.38,5.69h-1a4.62,4.62,0,0,1-1.07-.07V83.76H201.42V48.7q0-4.18,4.68-6.48a20.73,20.73,0,0,1,16.56,0q4.54,2.31,4.54,6.48Z"/><path class="cls-1" d="M61.46,93.11h1.13l1.86,4.12.26.64.26.73H65s0,0,0-.13,0-.53,0-.62c0-.4,0-.73,0-1V93.11h.73v6.4H64.62l-1.87-4.16c-.23-.53-.47-1.22-.51-1.36l0,0-.05.1c0,.18,0,1.14,0,1.19v4.26h-.73Z"/><path class="cls-1" d="M69.83,96.78c0-.78-.3-1.37-.92-1.37a.88.88,0,0,0-.82.58,2.26,2.26,0,0,0-.16.79Zm.79.53h-2.7c0,1,.29,1.7,1.1,1.7a1.22,1.22,0,0,0,.92-.38l.45.42a2,2,0,0,1-1.48.58c-1.06,0-1.8-.84-1.8-2.27,0-2.32,1.38-2.51,1.79-2.51,1.1,0,1.68.93,1.71,2Z"/><path class="cls-1" d="M73.11,98.95c.71,0,1.06-1,1.06-1.74,0-1-.45-1.75-1-1.75s-.9.79-.9,1.86c0,.4.05,1.63.89,1.63m1.8-6v6.36l-.67.29,0-1-.05-.06s-.06.06-.11.15a2.52,2.52,0,0,1-.65.76,1.06,1.06,0,0,1-.48.12c-1,0-1.48-1-1.48-2.47,0-1,.38-2.3,1.47-2.3a1.14,1.14,0,0,1,1,.58l.08.11.1.13.06-.1V93.28Z"/><path class="cls-1" d="M78.56,96.78c0-.78-.3-1.37-.92-1.37a.88.88,0,0,0-.82.58,2.24,2.24,0,0,0-.16.79Zm.78.53h-2.7c0,1,.29,1.7,1.1,1.7a1.22,1.22,0,0,0,.92-.38l.45.42a2,2,0,0,1-1.48.58c-1.06,0-1.8-.84-1.8-2.27,0-2.32,1.38-2.51,1.79-2.51,1.1,0,1.68.93,1.71,2Z"/><path class="cls-1" d="M80.44,95.13l.73-.3v1.45l0,.1h.1c.05-.06.23-.36.27-.42a2.65,2.65,0,0,1,1.26-1.13v1.29l-.29,0a1.69,1.69,0,0,0-1.31.81v2.61h-.81Z"/><polygon class="cls-1" points="83.88 93.29 84.55 93.01 84.66 93.01 84.66 99.51 83.88 99.51 83.88 93.29"/><path class="cls-1" d="M88.31,97.15c-1,0-1.82.38-1.82,1.18a.68.68,0,0,0,.68.72,1.75,1.75,0,0,0,1.14-.65Zm.8,1.34c0,.24,0,.52.39.5v.62a1.12,1.12,0,0,1-.89-.3.87.87,0,0,1-.23-.45l0,0-.29.27a1.67,1.67,0,0,1-1.27.5,1.11,1.11,0,0,1-1.11-1.12,1.56,1.56,0,0,1,.67-1.29,3.35,3.35,0,0,1,1.95-.51v-.59c0-.18,0-.63-.71-.63a2.66,2.66,0,0,0-1.32.48l-.34-.58a3.19,3.19,0,0,1,1.71-.52,1.83,1.83,0,0,1,1,.3,1.2,1.2,0,0,1,.42,1Z"/><path class="cls-1" d="M90.47,95.13l.72-.29v.89l.07.09.15-.12.17-.24a1.32,1.32,0,0,1,1.1-.58,1,1,0,0,1,.59.17c.18.12.33.32.33,1v3.48h-.77V96.05c0-.12,0-.6-.45-.6a1.19,1.19,0,0,0-.78.49,3.67,3.67,0,0,0-.34.49v3.09h-.79Z"/><path class="cls-1" d="M96.21,98.95c.71,0,1.05-1,1.05-1.74,0-1-.45-1.75-1-1.75s-.9.79-.9,1.86c0,.4.05,1.63.89,1.63M98,93v6.36l-.67.29,0-1-.05-.06s-.06.06-.11.15a2.52,2.52,0,0,1-.65.76,1.06,1.06,0,0,1-.48.12c-1,0-1.48-1-1.48-2.47,0-1,.38-2.3,1.47-2.3a1.14,1.14,0,0,1,1,.58l.08.11.1.13.06-.1V93.28Z"/><path class="cls-1" d="M101.25,95.86a1.58,1.58,0,0,0-1-.42.6.6,0,0,0-.68.6c0,.34.27.52.55.65l.73.37a1.29,1.29,0,0,1,.85,1.19,1.39,1.39,0,0,1-1.5,1.38,2.32,2.32,0,0,1-1.34-.44l.3-.59a1.56,1.56,0,0,0,1.06.46.72.72,0,0,0,.78-.72c0-.37-.18-.49-.92-.85s-1.15-.76-1.15-1.36a1.27,1.27,0,0,1,1.36-1.26,2,2,0,0,1,1.22.36Z"/><path class="cls-1" d="M105.06,96.78c0-.78-.3-1.37-.92-1.37a.88.88,0,0,0-.82.58,2.24,2.24,0,0,0-.16.79Zm.79.53h-2.7c0,1,.29,1.7,1.1,1.7a1.22,1.22,0,0,0,.92-.38l.45.42a2,2,0,0,1-1.48.58c-1.06,0-1.8-.84-1.8-2.27,0-2.32,1.38-2.51,1.79-2.51,1.1,0,1.68.93,1.71,2Z"/><polygon class="cls-1" points="113.32 93.11 111.27 99.51 110.31 99.51 108.22 93.11 109.16 93.11 110.76 98.18 110.82 98.23 110.89 98.18 112.45 93.11 113.32 93.11"/><path class="cls-1" d="M116.24,96.78c0-.78-.3-1.37-.92-1.37a.88.88,0,0,0-.82.58,2.24,2.24,0,0,0-.16.79Zm.78.53h-2.7c0,1,.29,1.7,1.1,1.7a1.23,1.23,0,0,0,.93-.38l.45.42a2,2,0,0,1-1.48.58c-1.05,0-1.8-.84-1.8-2.27,0-2.32,1.38-2.51,1.79-2.51,1.1,0,1.68.93,1.71,2Z"/><path class="cls-1" d="M118.12,95.13l.73-.3v1.45l0,.1H119c.05-.06.23-.36.27-.42a2.64,2.64,0,0,1,1.27-1.13v1.29l-.29,0a1.69,1.69,0,0,0-1.31.81v2.61h-.81Z"/><path class="cls-1" d="M124,96.78c0-.78-.3-1.37-.92-1.37a.88.88,0,0,0-.82.58,2.26,2.26,0,0,0-.16.79Zm.79.53h-2.7c0,1,.29,1.7,1.1,1.7a1.22,1.22,0,0,0,.92-.38l.45.42a2,2,0,0,1-1.48.58c-1.06,0-1.8-.84-1.8-2.27,0-2.32,1.38-2.51,1.79-2.51,1.1,0,1.68.93,1.71,2Z"/><path class="cls-1" d="M125.9,95.13l.72-.29v.89l.07.09.15-.12.17-.24a1.32,1.32,0,0,1,1.1-.58,1,1,0,0,1,.59.17c.18.12.33.32.33,1v3.48h-.77V96.05c0-.12,0-.6-.45-.6a1.18,1.18,0,0,0-.78.49,3.67,3.67,0,0,0-.34.49v3.09h-.79Z"/><path class="cls-1" d="M130.47,95h.78v4.56h-.78Zm-.12-1.67h1v.83h-1Z"/><path class="cls-1" d="M135.09,96.95c0-1.06-.48-1.52-1-1.52-.91,0-.91,1.24-.91,1.64s.07,1.34.9,1.34c.3,0,1-.21,1-1.46m.1-2h.63V99a4,4,0,0,1-.11.77,1.34,1.34,0,0,1-.76.83,2.49,2.49,0,0,1-1,.2,4.51,4.51,0,0,1-1.07-.14v-.79h.32a.79.79,0,0,0,.76.32,1.31,1.31,0,0,0,.72-.21,1.15,1.15,0,0,0,.38-1v-.66l0,0c-.06,0-.07,0-.15.16a1.19,1.19,0,0,1-1,.56,1.34,1.34,0,0,1-1.2-.82,3.19,3.19,0,0,1-.26-1.47c0-1.09.65-1.91,1.45-1.91a1.2,1.2,0,0,1,1.18.72c.07.12.07.14.12.17a.11.11,0,0,0,.08-.11Z"/><path class="cls-1" d="M137.26,95H138v4.56h-.79Zm-.12-1.67h1v.83h-1Z"/><path class="cls-1" d="M139.47,95.13l.72-.29v.89l.07.09.15-.12.17-.24a1.32,1.32,0,0,1,1.1-.58,1,1,0,0,1,.59.17c.18.12.33.32.33,1v3.48h-.77V96.05c0-.12,0-.6-.45-.6a1.18,1.18,0,0,0-.78.49,3.52,3.52,0,0,0-.34.49v3.09h-.79Z"/><path class="cls-1" d="M146.25,96.95c0-1.06-.48-1.52-1-1.52-.91,0-.91,1.24-.91,1.64s.07,1.34.9,1.34c.3,0,1-.21,1-1.46m.11-2H147V99a4.07,4.07,0,0,1-.1.77,1.35,1.35,0,0,1-.76.83,2.5,2.5,0,0,1-1,.2,4.5,4.5,0,0,1-1.07-.14v-.79h.32a.79.79,0,0,0,.76.32,1.31,1.31,0,0,0,.72-.21,1.15,1.15,0,0,0,.38-1v-.66l0,0c-.06,0-.07,0-.15.16a1.19,1.19,0,0,1-1,.56,1.34,1.34,0,0,1-1.2-.82,3.19,3.19,0,0,1-.26-1.47c0-1.09.65-1.91,1.45-1.91a1.21,1.21,0,0,1,1.18.72c.07.12.07.14.12.17a.11.11,0,0,0,.08-.11Z"/><path class="cls-1" d="M153.6,95l-1.18,4.56h-.94L150.23,95h.82l.69,3c0,.07,0,.24.07.36a2.63,2.63,0,0,0,.05.3l.06.06H152l.06-.07a2.19,2.19,0,0,0,.06-.35c0-.11,0-.21.06-.3l.67-3Z"/><path class="cls-1" d="M156.86,97.15c-1,0-1.82.38-1.82,1.18a.68.68,0,0,0,.68.72,1.75,1.75,0,0,0,1.14-.65Zm.8,1.34c0,.24,0,.52.39.5v.62a1.11,1.11,0,0,1-.89-.3.85.85,0,0,1-.23-.45l0,0-.29.27a1.67,1.67,0,0,1-1.27.5,1.11,1.11,0,0,1-1.11-1.12,1.56,1.56,0,0,1,.67-1.29,3.35,3.35,0,0,1,1.95-.51v-.59c0-.18,0-.63-.72-.63a2.66,2.66,0,0,0-1.32.48l-.34-.58a3.19,3.19,0,0,1,1.71-.52,1.84,1.84,0,0,1,1,.3,1.2,1.2,0,0,1,.42,1Z"/><path class="cls-1" d="M159,95.13l.72-.29v.89l.07.09.15-.12.17-.24a1.32,1.32,0,0,1,1.1-.58,1,1,0,0,1,.59.17c.18.12.33.32.33,1v3.48h-.77V96.05c0-.12,0-.6-.45-.6a1.18,1.18,0,0,0-.78.49,3.64,3.64,0,0,0-.34.49v3.09H159Z"/><path class="cls-1" d="M167.12,93.86V96.2h.35c1.07,0,1.94-.12,1.94-1.16s-1.29-1.19-1.74-1.19Zm-.89-.75h1.39a3.29,3.29,0,0,1,2,.44,1.75,1.75,0,0,1,.79,1.51,1.72,1.72,0,0,1-.66,1.43,2.78,2.78,0,0,1-1.81.47h-.78v2.55h-.89Z"/><path class="cls-1" d="M171.77,97.29c0,.35.12,1.64,1,1.64s1-1.06,1-1.72a3.82,3.82,0,0,0-.16-1.08.94.94,0,0,0-.51-.58.87.87,0,0,0-.33-.06c-.86,0-1,1.09-1,1.8m1-2.45a1.59,1.59,0,0,1,1.52.9,3.8,3.8,0,0,1,.34,1.52c0,1.37-.7,2.36-1.82,2.36a1.5,1.5,0,0,1-1.3-.63,2.9,2.9,0,0,1-.49-1.83c0-1.59.81-2.31,1.75-2.31"/><path class="cls-1" d="M177,98.95c.71,0,1.06-1,1.06-1.74,0-1-.45-1.75-1-1.75s-.9.79-.9,1.86c0,.4.05,1.63.89,1.63m1.8-6v6.36l-.67.29,0-1-.05-.06s-.06.06-.1.15a2.54,2.54,0,0,1-.65.76,1.06,1.06,0,0,1-.48.12c-1,0-1.48-1-1.48-2.47,0-1,.38-2.3,1.47-2.3a1.14,1.14,0,0,1,1,.58l.08.11.1.13.06-.1V93.28Z"/><path class="cls-1" d="M180.5,97.29c0,.35.12,1.64,1,1.64s1-1.06,1-1.72a3.82,3.82,0,0,0-.16-1.08.94.94,0,0,0-.51-.58.87.87,0,0,0-.33-.06c-.86,0-1,1.09-1,1.8m1-2.45a1.59,1.59,0,0,1,1.52.9,3.82,3.82,0,0,1,.34,1.52c0,1.37-.7,2.36-1.82,2.36a1.5,1.5,0,0,1-1.3-.63,2.89,2.89,0,0,1-.49-1.83c0-1.59.81-2.31,1.75-2.31"/><path class="cls-1" d="M183.82,95.32h.65v-1l.73-.71h.09v1.75H186v.5h-.77v2.71a.36.36,0,0,0,.38.41,1.8,1.8,0,0,0,.77-.25v.69a2.12,2.12,0,0,1-.89.23,1,1,0,0,1-1-1V95.82h-.65Z"/><path class="cls-1" d="M187.21,93.29,188,93v2.69c0,.06,0,.09.07.09s.14-.16.22-.27a1.3,1.3,0,0,1,1.15-.64c.65,0,.91.45.91,1.11v3.57h-.78V96c0-.33-.11-.55-.44-.55a.85.85,0,0,0-.51.21,3.94,3.94,0,0,0-.63.78v3.11h-.78Z"/><path class="cls-1" d="M194.08,96.78c0-.78-.3-1.37-.92-1.37a.88.88,0,0,0-.82.58,2.22,2.22,0,0,0-.16.79Zm.78.53h-2.7c0,1,.29,1.7,1.1,1.7a1.23,1.23,0,0,0,.93-.38l.45.42a2,2,0,0,1-1.48.58c-1.05,0-1.8-.84-1.8-2.27,0-2.32,1.38-2.51,1.79-2.51,1.1,0,1.68.93,1.71,2Z"/><path class="cls-1" d="M196,95.13l.73-.3v1.45l0,.1h.1c.05-.06.23-.36.27-.42a2.64,2.64,0,0,1,1.26-1.13v1.29l-.29,0a1.7,1.7,0,0,0-1.31.81v2.61H196Z"/><path class="cls-1" d="M201.57,97.15c-1,0-1.82.38-1.82,1.18a.68.68,0,0,0,.68.72,1.75,1.75,0,0,0,1.14-.65Zm.8,1.34c0,.24,0,.52.39.5v.62a1.11,1.11,0,0,1-.89-.3.86.86,0,0,1-.23-.45l0,0-.29.27a1.67,1.67,0,0,1-1.27.5A1.11,1.11,0,0,1,199,98.48a1.56,1.56,0,0,1,.67-1.29,3.35,3.35,0,0,1,1.95-.51v-.59c0-.18,0-.63-.72-.63a2.66,2.66,0,0,0-1.32.48l-.34-.58a3.2,3.2,0,0,1,1.71-.52,1.84,1.84,0,0,1,1,.3,1.2,1.2,0,0,1,.42,1Z"/><path class="cls-1" d="M205.43,95.44c-.67,0-1,1-1,1.73,0,1.36.6,1.74,1.09,1.74s.85-.34.85-1.78c0-.48-.07-1.69-.89-1.69M203.64,95l.69-.3v1c0,.07,0,.11.06.11l.06,0c.09-.06.29-1,1.18-1a1.28,1.28,0,0,1,1.11.71,3.76,3.76,0,0,1,.37,1.66c0,1.6-.67,2.42-1.47,2.42a1.25,1.25,0,0,1-1-.58c-.12-.19-.16-.22-.19-.22l0,.12V101h-.77Z"/><path class="cls-1" d="M210.56,96.78c0-.78-.3-1.37-.92-1.37a.88.88,0,0,0-.82.58,2.22,2.22,0,0,0-.16.79Zm.78.53h-2.7c0,1,.29,1.7,1.1,1.7a1.23,1.23,0,0,0,.93-.38l.45.42a2,2,0,0,1-1.48.58c-1.05,0-1.8-.84-1.8-2.27,0-2.32,1.38-2.51,1.79-2.51,1.1,0,1.68.93,1.71,2Z"/><path class="cls-1" d="M214.85,99.63v-.85l-.05-.11-.08,0c-.1.11-.23.32-.36.47a1.34,1.34,0,0,1-1,.45c-.5,0-.92-.31-.92-1.15V95h.78v3.29c0,.23,0,.8.47.8s.65-.39,1.1-1V95h.76v4.42Z"/><path class="cls-1" d="M216.3,95.32H217v-1l.73-.71h.09v1.75h.72v.5h-.77v2.71a.36.36,0,0,0,.38.41,1.8,1.8,0,0,0,.77-.25v.69a2.12,2.12,0,0,1-.89.23,1,1,0,0,1-1-1V95.82h-.65Z"/><path class="cls-1" d="M222.19,96.78c0-.78-.3-1.37-.92-1.37a.88.88,0,0,0-.82.58,2.22,2.22,0,0,0-.16.79Zm.78.53h-2.7c0,1,.29,1.7,1.1,1.7a1.22,1.22,0,0,0,.92-.38l.45.42a2,2,0,0,1-1.48.58c-1.05,0-1.8-.84-1.8-2.27,0-2.32,1.38-2.51,1.79-2.51,1.1,0,1.68.93,1.71,2Z"/><path class="cls-1" d="M224.09,95.13l.71-.29v.89l.07.09.15-.12.17-.24a1.32,1.32,0,0,1,1.1-.58,1,1,0,0,1,.59.17c.18.12.33.32.33,1v3.48h-.77V96.05c0-.12,0-.6-.45-.6a1.18,1.18,0,0,0-.78.49,3.64,3.64,0,0,0-.34.49v3.09h-.78Z"/></svg>